<?xml version="1.0" encoding="UTF-8" standalone="no"?>
<!-- Created with Inkscape (http://www.inkscape.org/) -->

<svg
   width="1920"
   height="1080"
   viewBox="0 0 1920 1080"
   version="1.1"
   id="svg1"
   inkscape:version="1.4 (86a8ad7, 2024-10-11)"
   sodipodi:docname="Маскот.svg"
   xmlns:inkscape="http://www.inkscape.org/namespaces/inkscape"
   xmlns:sodipodi="http://sodipodi.sourceforge.net/DTD/sodipodi-0.dtd"
   xmlns="http://www.w3.org/2000/svg"
   xmlns:svg="http://www.w3.org/2000/svg">
  <sodipodi:namedview
     id="namedview1"
     pagecolor="#ffffff"
     bordercolor="#000000"
     borderopacity="0.25"
     inkscape:showpageshadow="2"
     inkscape:pageopacity="0.0"
     inkscape:pagecheckerboard="0"
     inkscape:deskcolor="#d1d1d1"
     inkscape:document-units="px"
     inkscape:zoom="0.58796296"
     inkscape:cx="939.68504"
     inkscape:cy="533.19685"
     inkscape:window-width="1600"
     inkscape:window-height="837"
     inkscape:window-x="-8"
     inkscape:window-y="-8"
     inkscape:window-maximized="1"
     inkscape:current-layer="layer1" />
  <defs
     id="defs1" />
  <path
     id="path296"
     style="display:inline;fill:#6e8087;fill-opacity:1;stroke:none;stroke-width:2.74238"
     d="m 1015.1029,355.6814 c 0,23.05193 -80.55819,39.9132 -179.11539,39.9132 -98.5572,0 -178.5966,-16.86127 -178.5966,-39.9132 0,-23.05191 80.0394,-43.56519 178.5966,-43.56519 98.5572,0 179.11539,20.51327 179.11539,43.56519 z"
     sodipodi:nodetypes="sssss"
     transform="translate(-400.69123,51.547935)" />
  <g
     id="g304"
     inkscape:label="Бак"
     transform="translate(-941.54162,-38.593797)"
     style="display:inline">
    <path
       id="rect296-4"
       style="fill:#9eabb0;stroke:none;stroke-width:2.59511"
       d="m 1198.2406,445.82226 v 374.60547 c 0,0 33.994,37.27178 179.1605,36.92677 133.2687,-0.31674 178.5519,-36.92677 178.5519,-36.92677 V 445.82226 c 0,23.05193 -80.5579,39.91407 -179.1151,39.91407 -98.5572,0 -178.5973,-16.86214 -178.5973,-39.91407 z"
       sodipodi:nodetypes="ccsccsc" />
    <path
       d="m 1358.5195,829.64258 c 6.0233,0.18632 12.1341,0.2832 18.3184,0.2832 7.3501,0 14.5577,-0.17531 21.6816,-0.4375 V 511.44336 c -7.1905,0.18665 -14.2603,0.46289 -21.6816,0.46289 -6.2739,0 -12.2104,-0.25868 -18.3184,-0.39258 z"
       style="fill:#89999f;fill-opacity:1;stroke-width:3.14781"
       id="path301" />
    <path
       d="m 1508,499.47266 c -9.3802,2.21922 -19.7672,4.21632 -31.2324,5.89062 v 315.19336 c 11.4655,-2.39712 21.852,-5.25435 31.2324,-8.43164 z"
       style="fill:#89999f;fill-opacity:1;stroke-width:2.85914"
       id="path302" />
    <path
       d="m 1249.0391,813.19531 c 9.3938,3.03085 19.8779,5.6919 31.2324,7.96485 V 505.7832 c -11.3543,-1.58762 -21.8388,-3.44549 -31.2324,-5.5625 z"
       style="fill:#89999f;fill-opacity:1;stroke-width:2.85914"
       id="path300" />
  </g>
  <g
     id="g303"
     inkscape:label="Крышка"
     transform="translate(-784.06131,-5.4205689)"
     style="display:inline">
    <path
       id="rect296-4-4"
       style="fill:#9eabb0;fill-opacity:1;stroke:none;stroke-width:2.65251"
       d="m 1034.3684,284.81249 v 42.60547 c 0,0 35.5145,37.27178 187.1741,36.92677 139.2296,-0.31674 186.5383,-36.92677 186.5383,-36.92677 v -42.60547 c -125.5626,-0.2034 -244.8063,1.78818 -373.7124,0 z"
       sodipodi:nodetypes="ccsccc" />
    <path
       id="path296-3"
       style="fill:#b5bfc2;fill-opacity:1;stroke:none;stroke-width:2.80304"
       d="m 1408.0811,284.81336 c 0,23.05193 -84.1615,46.4132 -187.127,46.4132 -102.9655,0 -186.585,-23.36127 -186.585,-46.4132 0,-23.05191 84.1735,-46.21684 187.139,-46.21684 102.9656,0 186.573,23.16492 186.573,46.21684 z"
       sodipodi:nodetypes="sssss" />
    <path
       id="rect302"
       style="fill:#89999f;fill-opacity:1;stroke:none;stroke-width:2.37667;stroke-dasharray:none;stroke-opacity:1"
       d="m 1181.6992,226.12923 v 51.9235 h 16.7617 v -35.12936 h 56.0313 v 35.12936 h 16.7617 v -51.9235 z"
       sodipodi:nodetypes="ccccccccc" />
  </g>
  <g
     inkscape:label="Слой 1"
     inkscape:groupmode="layer"
     id="layer1">
    <g
       id="g9"
       transform="rotate(9.7982099,1073.6176,155.775)">
      <path
         id="path5"
         style="fill:#2d2d2d;fill-opacity:1;stroke-width:5.47429"
         d="m 1546.6119,746.97557 c 0,0 -27.8021,90.48622 -177.8947,121.27081 -111.2114,22.8099 -308.2829,-35.20059 -306.6727,-83.61385 1.444,-43.41546 182.9677,-33.39507 271.8066,-66.16439 154.064,-56.82843 212.7608,28.50743 212.7608,28.50743 z"
         sodipodi:nodetypes="csssc" />
      <path
         d="m 1176.6758,854.11719 c -1.436,-20.85186 -2.695,-43.48427 -2.4278,-59.35547 0.224,-13.2962 1.7304,-31.11112 3.4356,-48.68164 -18.4159,2.1858 -36.2281,4.42408 -51.8438,7.08984 -1.5502,15.33612 -2.7873,30.46061 -2.9804,41.92969 -0.1915,11.37265 0.5257,26.25333 1.5469,41.33984 15.6092,6.50589 33.3214,12.49537 52.2695,17.67774 z"
         style="fill:#535353;stroke-width:5;fill-opacity:1"
         id="path6" />
      <path
         d="m 1283.7422,872.36328 c -2.6004,-21.18219 -5.1467,-44.52734 -5.7266,-60.8125 -0.7741,-21.74068 0.9176,-54.90945 2.4551,-79.42578 -16.3545,3.01573 -33.5654,5.52891 -50.9922,7.74219 -1.7432,24.24753 -3.477,54.67884 -2.7637,74.71484 0.4988,14.00745 2.5898,33.20162 4.9805,51.60938 17.3183,2.90833 34.8481,5.02772 52.0469,6.17187 z"
         style="fill:#535353;stroke-width:5;fill-opacity:1"
         id="path7" />
      <path
         d="m 1489.9551,708.3418 c -13.9651,-4.92332 -30.7549,-8.49215 -50.5957,-9.21485 0.7007,25.01176 2.0388,56.96098 4.8301,77.72266 2.2321,16.60349 7.3409,40.11965 12.3085,61.17969 18.4134,-9.61895 33.2578,-20.076 45.1426,-30.38672 -2.9409,-14.30409 -5.5943,-28.18894 -7.0488,-39.00781 -2.1698,-16.13893 -3.6022,-39.16233 -4.6367,-60.29297 z"
         style="fill:#535353;stroke-width:5.03127;fill-opacity:1"
         id="path9" />
      <path
         d="m 1397.6094,861.16797 c -4.1293,-23.41681 -8.6829,-52.62199 -10.2051,-75.25586 -1.5554,-23.12687 -0.9171,-58.02268 -0.2051,-82.5293 -16.306,3.09865 -34.0241,7.96871 -53.2226,15.04297 -0.7864,21.25278 -1.0504,48.56783 0.9277,75.2793 1.584,21.38927 7.189,53.37647 11.8574,77.90625 7.6103,-0.81791 14.9543,-1.92935 21.9551,-3.36524 10.2022,-2.09251 19.7907,-4.4811 28.8926,-7.07812 z"
         style="fill:#535353;stroke-width:5.15127;fill-opacity:1"
         id="path8" />
    </g>
    <path
       style="display:inline;fill:#666666;fill-opacity:1;stroke:none;stroke-width:3.21226;stroke-dasharray:none;stroke-opacity:1"
       d="m 974.67282,564.01398 c 0,0 33.60698,18.99071 62.38488,58.80238 16.658,23.04479 29.8408,56.49667 29.8408,56.49667 l 39.9229,-1.62692 c 0,0 -0.3949,-44.50233 -40.571,-108.03674 -11.2756,-17.83114 -51.5583,-54.11717 -51.5583,-54.11717 z"
       id="path313"
       sodipodi:nodetypes="csccscc" />
    <path
       id="path314-5"
       style="display:inline;fill:#2d2d2d;stroke-width:3.87928"
       d="m 1076.5228,668.68495 c -12.9124,4.37464 -16.678,12.94161 -20.715,25.88282 -2.6586,8.52229 -6.3216,17.56595 -3.1163,19.77754 3.2051,2.21163 6.2056,-0.92062 8.1367,-3.19621 2.2529,-2.65527 2.1873,-7.1374 4.486,-8.71289 4.9741,-3.409 8.0116,3.47631 5.6958,13.02117 -2.3157,9.54481 -3.4326,16.31256 0.2672,17.74649 2.6895,1.04243 5.7643,-2.28973 6.4845,-4.94085 1.4873,-5.47497 3.3264,-11.15769 3.6263,-12.4336 0.2998,-1.2759 1.5456,-1.2697 1.7476,-0.21986 0.2013,1.04998 -3.531,19.47589 -2.8188,23.42299 0.6048,3.35061 5.4048,3.9601 7.1486,0.67351 4.2422,-7.99514 6.1237,-22.96401 6.2811,-24.10844 0.1571,-1.14444 0.1145,-2.00254 0.8653,-2.109 0.7507,-0.10581 0.9267,0.93608 1.099,2.35825 0.9474,7.81662 -0.1638,15.70964 1.7836,22.92083 1.0425,3.86003 7.1367,3.30532 8.0515,-0.92145 1.9825,-9.15921 1.3426,-24.82896 1.212,-25.99943 -0.1311,-1.17043 0.8181,-1.60153 1.5997,-0.76356 0.7816,0.83799 2.6441,6.71376 4.0333,9.86791 1.3891,3.15416 3.4131,4.47274 5.9974,3.67874 2.5841,-0.79402 2.8353,-5.33417 1.6163,-10.58488 -1.2191,-5.25068 -1.1314,-25.99247 -10.0814,-37.75398 -8.4479,-10.93336 -20.488,-11.98074 -33.4004,-7.6061 z"
       sodipodi:nodetypes="zszsszsszzsszzssszzzzzcz" />
    <path
       style="display:inline;fill:#666666;fill-opacity:1;stroke:none;stroke-width:3.21226;stroke-dasharray:none;stroke-opacity:1"
       d="m 906.12406,567.09595 c 0,0 -33.607,18.99071 -62.3849,58.80238 -16.658,23.04479 -29.8408,56.49667 -29.8408,56.49667 l -39.9229,-1.62692 c 0,0 0.3949,-44.50233 40.571,-108.03674 11.2756,-17.83114 51.5583,-54.11717 51.5583,-54.11717 z"
       id="path313-1"
       sodipodi:nodetypes="csccscc" />
    <path
       id="path314-5-1"
       style="display:inline;fill:#2d2d2d;stroke-width:3.87928"
       d="m 804.27406,671.76692 c 12.9124,4.37464 16.678,12.94161 20.715,25.88282 2.6586,8.52229 6.3216,17.56595 3.1163,19.77754 -3.2051,2.21163 -6.2056,-0.92062 -8.1367,-3.19621 -2.2529,-2.65527 -2.1873,-7.1374 -4.486,-8.71289 -4.9741,-3.409 -8.0116,3.47631 -5.6958,13.02117 2.3157,9.54481 3.4326,16.31256 -0.2672,17.74649 -2.6895,1.04243 -5.7643,-2.28973 -6.4845,-4.94085 -1.4873,-5.47497 -3.3264,-11.15769 -3.6263,-12.4336 -0.2998,-1.2759 -1.5456,-1.2697 -1.7476,-0.21986 -0.2013,1.04998 3.531,19.47589 2.8188,23.42299 -0.6048,3.35061 -5.4048,3.9601 -7.1486,0.67351 -4.2422,-7.99514 -6.1237,-22.96401 -6.2811,-24.10844 -0.1571,-1.14444 -0.1145,-2.00254 -0.8653,-2.109 -0.7507,-0.10581 -0.9267,0.93608 -1.099,2.35825 -0.9474,7.81662 0.1638,15.70964 -1.7836,22.92083 -1.0425,3.86003 -7.1367,3.30532 -8.0515,-0.92145 -1.9825,-9.15921 -1.3426,-24.82896 -1.212,-25.99943 0.1311,-1.17043 -0.8181,-1.60153 -1.5997,-0.76356 -0.7816,0.83799 -2.6441,6.71376 -4.0333,9.86791 -1.3891,3.15416 -3.4131,4.47274 -5.9974,3.67874 -2.5841,-0.79402 -2.8353,-5.33417 -1.6163,-10.58488 1.2191,-5.25068 1.1314,-25.99247 10.0814,-37.75398 8.4479,-10.93336 20.488,-11.98074 33.4004,-7.6061 z"
       sodipodi:nodetypes="zszsszsszzsszzssszzzzzcz" />
    <path
       id="path1"
       style="fill:#666666;stroke-width:5.94128"
       d="m 1045.7232,675.64719 c 1.616,80.98218 -28.248,146.44209 -103.05937,146.68341 -77.13803,0.24881 -102.62009,-65.67454 -103.05939,-146.68341 -0.77781,-143.42948 46.14125,-146.68341 103.05939,-146.68341 56.91807,-1e-5 99.94807,-9.22978 103.05937,146.68341 z"
       sodipodi:nodetypes="sssss" />
    <g
       id="g311"
       transform="matrix(0.85788503,0,0,0.85788503,72.47884,-314.27175)"
       style="display:inline">
      <path
         style="display:inline;fill:#666666;fill-opacity:1;stroke:none;stroke-width:3;stroke-dasharray:none;stroke-opacity:1"
         d="m 846.46476,809.9084 c -24.74244,-47.77453 -16.20551,-141.41714 0,-149.50977 16.20551,-8.09263 88.55194,26.98131 128.16146,74.37401 31.75708,37.99727 -105.38764,119.10914 -128.16146,75.13576 z"
         id="path312"
         sodipodi:nodetypes="ssss" />
      <path
         style="display:inline;fill:#c1c1c1;fill-opacity:1;stroke:none;stroke-width:3;stroke-dasharray:none;stroke-opacity:1"
         d="m 846.46476,809.9084 c -24.7425,-47.77453 -14.7055,-123.91714 1.5,-132.00977 16.2055,-8.09263 59.16487,25.13955 93.6614,76.37401 26.25714,38.99727 -72.3876,99.60914 -95.1614,55.63576 z"
         id="path312-7"
         sodipodi:nodetypes="ssss" />
      <path
         style="display:inline;fill:#666666;fill-opacity:1;stroke:none;stroke-width:3;stroke-dasharray:none;stroke-opacity:1"
         d="m 1182.8982,812.46479 c 24.7424,-47.77453 16.2055,-141.41714 0,-149.50977 -16.2055,-8.09263 -88.5519,26.98131 -128.1614,74.37401 -31.7571,37.99727 105.3876,119.10914 128.1614,75.13576 z"
         id="path312-6"
         sodipodi:nodetypes="ssss" />
      <path
         style="display:inline;fill:#c1c1c1;fill-opacity:1;stroke:none;stroke-width:3;stroke-dasharray:none;stroke-opacity:1"
         d="m 1182.8982,812.46479 c 24.7425,-47.77453 14.7055,-123.91714 -1.5,-132.00977 -16.2055,-8.09263 -59.1649,25.13955 -93.6614,76.37401 -26.2571,38.99727 72.3876,99.60914 95.1614,55.63576 z"
         id="path312-7-0"
         sodipodi:nodetypes="ssss" />
      <path
         d="m 1015.2774,713.60443 c -136.06904,10e-4 -182.14991,116.64631 -202.1213,141.07107 -19.97139,24.42476 -40.0625,40.59375 -40.0625,40.59375 l 52.45356,11.08586 -47.98789,13.67008 c 30.52662,20.30444 113.29121,106.44431 232.78923,105.09401 119.498,-1.3504 196.8317,-81.24403 230.4908,-99.83523 l -50.1687,-15.60269 55.1265,-4.79484 c 0,0 -17.1411,-18.14635 -37.8922,-48.23176 -20.7512,-30.0854 -56.5584,-143.05124 -192.6275,-143.05025 z"
         style="fill:#666666;stroke-width:3"
         id="path306"
         sodipodi:nodetypes="zzccczccczz" />
      <path
         d="m 982.98883,898.86105 c 10.39255,-32.18214 10.9318,-108.50976 -38.17459,-108.66878 -74.9117,-0.24258 -68.27903,92.83057 -171.72063,105.07698 l 52.45356,11.08586 -47.98789,13.67008 c 30.52662,20.30444 113.29121,106.44431 232.78922,105.09401 119.498,-1.3504 196.8317,-81.24403 230.4908,-99.83523 l -50.1687,-15.60269 55.1265,-4.79484 c -85.916,-19.16044 -77.1115,-112.72059 -139.5726,-113.29492 -63.4194,-0.58314 -73.5229,73.93651 -61.0864,105.19321 -19.2707,0.4638 -44.1172,1.76277 -62.14927,2.07632 z"
         style="display:inline;fill:#c1c1c1;fill-opacity:1;stroke-width:3"
         id="path306-3"
         sodipodi:nodetypes="csccczcccscc" />
      <path
         id="path307"
         style="fill:#e0e0e0;stroke-width:2.82537"
         d="m 1069.1561,925.79088 c 0,20.13716 -25.7969,30.38462 -56.4487,30.38462 -30.65182,0 -54.5513,-10.24746 -54.5513,-30.38462 0,-20.13715 24.37384,-48.61538 55.0256,-48.61538 30.6519,0 55.9744,28.47823 55.9744,48.61538 z"
         sodipodi:nodetypes="sssss" />
      <path
         id="path308"
         style="fill:#2d2d2d;stroke-width:2.58157"
         d="m 1047.7793,892.69217 c 0,11.11749 -15.082,29.48333 -33.6866,29.48333 -18.60461,0 -33.6866,-18.36584 -33.6866,-29.48333 0,-11.1175 14.62676,-16.26667 33.2313,-16.26667 18.6046,0 34.1419,5.14917 34.1419,16.26667 z"
         sodipodi:nodetypes="sssss" />
      <path
         id="path309"
         style="fill:#2d2d2d;stroke-width:2.89622"
         d="m 1177.712,875.72326 c 26.8008,25.29496 -15.6599,49.0643 -53.9473,46.95957 -43.1591,-2.37255 -62.1416,-29.59047 -65.0583,-52.67105 -4.5772,-36.22158 13.1667,-65.06928 42.2256,-64.79459 49.5346,0.46827 40.5346,36.29716 76.78,70.50607 z"
         sodipodi:nodetypes="sssss" />
      <path
         id="path309-0"
         style="display:inline;fill:#2d2d2d;stroke-width:2.84368"
         d="m 857.53515,871.43025 c -28.35024,22.48274 14.85872,48.78306 52.46051,48.14466 42.38621,-0.71964 62.01563,-26.74645 65.74419,-49.30892 5.85132,-35.40848 -10.44551,-64.60951 -38.93918,-65.22171 -41.66973,-0.8953 -42.65932,37.35595 -79.26552,66.38597 z"
         sodipodi:nodetypes="sssss" />
      <path
         style="fill:#2d2d2d;fill-opacity:1;stroke:none;stroke-width:3.26401;stroke-dasharray:none;stroke-opacity:1"
         d="m 972.7811,931.82925 c 0,0 12.20519,4.46144 23.34906,3.34608 11.14384,-1.11536 17.38854,-7.24983 17.38854,-7.24983 0,0 8.0144,7.22752 19.0983,8.29753 10.1562,0.98045 24.5391,-2.16306 24.5391,-2.16306 0,0 -12.4785,6.47353 -23.9869,5.91749 -11.0972,-0.53619 -19.7926,-5.91749 -19.7926,-5.91749 0,0 -5.1778,5.1296 -19.28409,5.02363 -11.75959,-0.0883 -21.31141,-7.25435 -21.31141,-7.25435 z"
         id="path310"
         sodipodi:nodetypes="cscscscsc" />
      <circle
         style="fill:#ffffff;fill-opacity:1;stroke:none;stroke-width:2.57851;stroke-dasharray:none;stroke-opacity:1"
         id="path311"
         cx="-930.76569"
         cy="854.94696"
         r="36.769554"
         transform="scale(-1,1)" />
      <circle
         style="display:inline;fill:#ffffff;fill-opacity:1;stroke:none;stroke-width:2.57851;stroke-dasharray:none;stroke-opacity:1"
         id="path311-8"
         cx="1105.7422"
         cy="855.3653"
         r="36.769554" />
      <circle
         style="display:inline;fill:#00aaff;fill-opacity:1;stroke:none;stroke-width:1.85972;stroke-dasharray:none;stroke-opacity:1"
         id="path311-8-3"
         cx="1100.1002"
         cy="852.06329"
         r="26.519554" />
      <circle
         style="display:inline;fill:#2d2d2d;fill-opacity:1;stroke:none;stroke-width:1.41344;stroke-dasharray:none;stroke-opacity:1"
         id="path311-8-3-5"
         cx="1100.1002"
         cy="852.06329"
         r="20.155592" />
      <circle
         style="display:inline;fill:#ffffff;fill-opacity:1;stroke:none;stroke-width:0.562382;stroke-dasharray:none;stroke-opacity:1"
         id="path311-8-3-0"
         cx="1110.6777"
         cy="842.92578"
         r="8.0195541" />
      <circle
         style="display:inline;fill:#00aa44;fill-opacity:1;stroke:none;stroke-width:1.85972;stroke-dasharray:none;stroke-opacity:1"
         id="path311-8-3-1"
         cx="936.40765"
         cy="851.64496"
         r="26.519554" />
      <circle
         style="display:inline;fill:#2d2d2d;fill-opacity:1;stroke:none;stroke-width:1.41344;stroke-dasharray:none;stroke-opacity:1"
         id="path311-8-3-5-5"
         cx="-936.40765"
         cy="851.64496"
         r="20.155592"
         transform="scale(-1,1)" />
      <circle
         style="display:inline;fill:#ffffff;fill-opacity:1;stroke:none;stroke-width:0.562382;stroke-dasharray:none;stroke-opacity:1"
         id="path311-8-3-0-4"
         cx="946.98517"
         cy="842.50745"
         r="8.0195541" />
    </g>
    <path
       style="fill:#666666;fill-opacity:1;stroke-width:4.58064"
       d="m 950.86511,793.64806 c 27.16248,34.29271 43.29498,117.08614 43.29498,117.08614 l 43.29501,-3.0281 c 0,0 28.3557,-96.38194 7.8463,-225.28569 -7.1797,-45.12557 -124.46629,73.3147 -94.43629,111.22765 z"
       id="path2"
       sodipodi:nodetypes="sccss" />
    <path
       id="path3"
       style="fill:#2d2d2d;stroke-width:5"
       d="m 1079.5475,920.38744 c 0,9.29878 -18.9171,10.82373 -42.9943,10.82374 -24.0772,10e-6 -45.01092,-1.47336 -44.90462,-11.94145 0.0944,-9.29831 1.3089,-21.73243 32.27692,-22.6344 24.067,-0.70097 55.622,14.45333 55.622,23.75211 z"
       sodipodi:nodetypes="sssss" />
    <path
       style="fill:#666666;fill-opacity:1;stroke-width:4.58064"
       d="m 934.17255,795.05049 c -27.1624,34.2927 -43.2949,117.08613 -43.2949,117.08613 l -43.295,-3.02809 c 0,0 -28.3558,-96.38195 -7.8464,-225.28569 7.1798,-45.12558 124.4663,73.31469 94.4363,111.22765 z"
       id="path2-6"
       sodipodi:nodetypes="sccss" />
    <path
       id="path3-1"
       style="fill:#2d2d2d;stroke-width:5"
       d="m 805.49015,922.0584 c 0,9.29878 18.9171,10.82373 42.9944,10.82374 24.07715,10e-6 45.0109,-1.47336 44.9046,-11.94145 -0.094,-9.29831 -1.3089,-21.73243 -32.2769,-22.6344 -24.0671,-0.70097 -55.6221,14.45333 -55.6221,23.75211 z"
       sodipodi:nodetypes="sssss" />
    <path
       id="path4"
       style="fill:#c1c1c1;fill-opacity:1;stroke-width:5.32859"
       d="m 1013.5354,706.63361 c 0,59.29202 -30.38597,82.17001 -69.86434,82.17001 -39.47838,0 -73.09947,-22.87799 -73.09947,-82.17001 0,-59.29203 32.00355,-107.35772 71.48192,-107.35772 39.47837,0 71.48189,48.06569 71.48189,107.35772 z"
       sodipodi:nodetypes="sssss" />
  </g>
</svg>
