<?xml version="1.0" encoding="UTF-8" standalone="no"?>
<!-- Created with Inkscape (http://www.inkscape.org/) -->

<svg
   width="1920"
   height="1080"
   viewBox="0 0 508 285.75001"
   version="1.1"
   id="svg1"
   sodipodi:docname="scrap_wallpaper.svg"
   inkscape:version="1.4 (e7c3feb100, 2024-10-09)"
   xml:space="preserve"
   inkscape:export-filename="scrap_wallpaper.png"
   inkscape:export-xdpi="96"
   inkscape:export-ydpi="96"
   xmlns:inkscape="http://www.inkscape.org/namespaces/inkscape"
   xmlns:sodipodi="http://sodipodi.sourceforge.net/DTD/sodipodi-0.dtd"
   xmlns:xlink="http://www.w3.org/1999/xlink"
   xmlns="http://www.w3.org/2000/svg"
   xmlns:svg="http://www.w3.org/2000/svg"><sodipodi:namedview
     id="namedview1"
     pagecolor="#000000"
     bordercolor="#000000"
     borderopacity="0.25"
     inkscape:showpageshadow="2"
     inkscape:pageopacity="0.0"
     inkscape:pagecheckerboard="0"
     inkscape:deskcolor="#000000"
     inkscape:document-units="mm"
     inkscape:zoom="0.70710678"
     inkscape:cx="1115.1074"
     inkscape:cy="614.47579"
     inkscape:window-width="1896"
     inkscape:window-height="1006"
     inkscape:window-x="10"
     inkscape:window-y="10"
     inkscape:window-maximized="0"
     inkscape:current-layer="layer1"
     showgrid="false" /><defs
     id="defs1"><linearGradient
       id="linearGradient113"
       inkscape:collect="always"><stop
         style="stop-color:#a0a0a0;stop-opacity:0;"
         offset="0.2"
         id="stop114" /><stop
         style="stop-color:#a0a0a0;stop-opacity:1;"
         offset="0.5"
         id="stop116" /><stop
         style="stop-color:#a0a0a0;stop-opacity:0;"
         offset="0.80000001"
         id="stop115" /></linearGradient><linearGradient
       id="linearGradient110"
       inkscape:collect="always"><stop
         style="stop-color:#00aa44;stop-opacity:1;"
         offset="0"
         id="stop110" /><stop
         style="stop-color:#00aa44;stop-opacity:1;"
         offset="0.40000001"
         id="stop112" /><stop
         style="stop-color:#00aaff;stop-opacity:1;"
         offset="0.60000002"
         id="stop113" /><stop
         style="stop-color:#00aaff;stop-opacity:1;"
         offset="1"
         id="stop111" /></linearGradient><linearGradient
       id="linearGradient34"
       inkscape:collect="always"><stop
         style="stop-color:#000000;stop-opacity:0.25183585;"
         offset="0"
         id="stop33" /><stop
         style="stop-color:#000000;stop-opacity:0;"
         offset="1"
         id="stop34" /></linearGradient><linearGradient
       id="linearGradient32"
       inkscape:collect="always"><stop
         style="stop-color:#000000;stop-opacity:0;"
         offset="0"
         id="stop32" /><stop
         style="stop-color:#000000;stop-opacity:0.25038821;"
         offset="1"
         id="stop31" /></linearGradient><linearGradient
       id="linearGradient29"
       inkscape:collect="always"><stop
         style="stop-color:#000000;stop-opacity:0.25038821;"
         offset="0"
         id="stop29" /><stop
         style="stop-color:#000000;stop-opacity:0;"
         offset="1"
         id="stop30" /></linearGradient><rect
       x="52.959316"
       y="46.769268"
       width="281.30338"
       height="290.24457"
       id="rect1" /><linearGradient
       inkscape:collect="always"
       xlink:href="#linearGradient29"
       id="linearGradient30"
       x1="17.339973"
       y1="38.459679"
       x2="17.339973"
       y2="40.459679"
       gradientUnits="userSpaceOnUse"
       gradientTransform="matrix(0.43518378,0,0,0.49880715,174.64824,148.9502)" /><linearGradient
       inkscape:collect="always"
       xlink:href="#linearGradient32"
       id="linearGradient31"
       gradientUnits="userSpaceOnUse"
       x1="17.339973"
       y1="38.459679"
       x2="17.339973"
       y2="40.459679"
       gradientTransform="matrix(0.43518378,0,0,0.49880715,174.64824,156.7316)" /><linearGradient
       inkscape:collect="always"
       xlink:href="#linearGradient34"
       id="linearGradient33"
       gradientUnits="userSpaceOnUse"
       x1="56.539948"
       y1="39.459679"
       x2="-21.860064"
       y2="39.459679"
       gradientTransform="matrix(0.01272467,0,0,4.3895029,198.53407,-0.68469781)" /><linearGradient
       inkscape:collect="always"
       xlink:href="#linearGradient29"
       id="linearGradient35"
       gradientUnits="userSpaceOnUse"
       x1="17.339973"
       y1="38.459679"
       x2="17.339973"
       y2="40.459679"
       gradientTransform="matrix(0.43518378,0,0,0.49880715,-195.52655,129.39697)" /><linearGradient
       inkscape:collect="always"
       xlink:href="#linearGradient34"
       id="linearGradient36"
       gradientUnits="userSpaceOnUse"
       gradientTransform="matrix(0.01272467,0,2.2067054e-8,4.3895029,-171.64072,-20.237938)"
       x1="56.539948"
       y1="39.459679"
       x2="-21.860064"
       y2="39.459679" /><linearGradient
       inkscape:collect="always"
       xlink:href="#linearGradient32"
       id="linearGradient37"
       gradientUnits="userSpaceOnUse"
       gradientTransform="matrix(0.43518378,0,0,0.49880715,-195.52655,137.17836)"
       x1="17.339973"
       y1="38.459679"
       x2="17.339973"
       y2="40.459679" /><linearGradient
       inkscape:collect="always"
       xlink:href="#linearGradient110"
       id="linearGradient111"
       x1="187.56523"
       y1="-33.048397"
       x2="254.76939"
       y2="252.17244"
       gradientUnits="userSpaceOnUse"
       gradientTransform="matrix(1.0010062,0,0,1.0017903,32.874992,33.381896)" /><linearGradient
       inkscape:collect="always"
       xlink:href="#linearGradient113"
       id="linearGradient115"
       x1="-254.76939"
       y1="252.17244"
       x2="-187.56523"
       y2="-33.048397"
       gradientUnits="userSpaceOnUse" /></defs><g
     inkscape:groupmode="layer"
     id="layer4"
     inkscape:label="bg"
     style="display:inline"
     sodipodi:insensitive="true"><rect
       style="fill:#202020;fill-opacity:1;stroke:none;stroke-width:0.529167;stroke-linecap:square"
       id="rect100"
       width="508"
       height="285.75"
       x="-33.097267"
       y="-33.577564"
       transform="translate(33.097269,33.577564)" /></g><g
     inkscape:groupmode="layer"
     id="layer5"
     inkscape:label="dots"
     sodipodi:insensitive="true"><path
       id="rect116"
       style="opacity:1;fill:#808080;fill-opacity:1;stroke:none;stroke-width:0.0694081;stroke-linecap:square;stroke-dasharray:none;stroke-opacity:1"
       d="M 0,0 V 0.52916667 H 0.52916667 V 0 Z M 16.933333,0 V 0.52916667 H 17.4625 V 0 Z m 16.933334,0 v 0.52916667 h 0.529166 V 0 Z M 50.8,0 v 0.52916667 h 0.529167 V 0 Z M 67.733333,0 V 0.52916667 H 68.2625 V 0 Z m 16.933334,0 v 0.52916667 h 0.529166 V 0 Z M 101.6,0 v 0.52916667 h 0.52917 V 0 Z m 16.93333,0 v 0.52916667 h 0.52917 V 0 Z m 16.93334,0 v 0.52916667 h 0.52916 V 0 Z M 152.4,0 v 0.52916667 h 0.52917 V 0 Z m 16.93333,0 v 0.52916667 h 0.52917 V 0 Z m 16.93334,0 v 0.52916667 h 0.52916 V 0 Z M 203.2,0 v 0.52916667 h 0.52917 V 0 Z m 16.93333,0 v 0.52916667 h 0.52917 V 0 Z m 16.93334,0 v 0.52916667 h 0.52916 V 0 Z M 254,0 v 0.52916667 h 0.52917 V 0 Z m 16.93333,0 v 0.52916667 h 0.52917 V 0 Z m 16.93334,0 v 0.52916667 h 0.52916 V 0 Z M 304.8,0 v 0.52916667 h 0.52917 V 0 Z m 16.93333,0 v 0.52916667 h 0.52917 V 0 Z m 16.93334,0 v 0.52916667 h 0.52916 V 0 Z M 355.6,0 v 0.52916667 h 0.52917 V 0 Z m 16.93333,0 v 0.52916667 h 0.52917 V 0 Z m 16.93334,0 v 0.52916667 h 0.52916 V 0 Z M 406.4,0 v 0.52916667 h 0.52917 V 0 Z m 16.93333,0 v 0.52916667 h 0.52917 V 0 Z m 16.93334,0 v 0.52916667 h 0.52916 V 0 Z M 457.2,0 v 0.52916667 h 0.52917 V 0 Z m 16.93333,0 v 0.52916667 h 0.52917 V 0 Z m 16.93334,0 v 0.52916667 h 0.52916 V 0 Z M 508,0 v 0.52916667 h 0.52917 V 0 Z M 0,16.933333 V 17.4625 h 0.52916667 v -0.529167 z m 16.933333,0 V 17.4625 H 17.4625 v -0.529167 z m 16.933334,0 V 17.4625 h 0.529166 v -0.529167 z m 16.933333,0 V 17.4625 h 0.529167 v -0.529167 z m 16.933333,0 V 17.4625 H 68.2625 v -0.529167 z m 16.933334,0 V 17.4625 h 0.529166 v -0.529167 z m 16.933333,0 V 17.4625 h 0.52917 v -0.529167 z m 16.93333,0 V 17.4625 h 0.52917 v -0.529167 z m 16.93334,0 V 17.4625 h 0.52916 v -0.529167 z m 16.93333,0 V 17.4625 h 0.52917 v -0.529167 z m 16.93333,0 V 17.4625 h 0.52917 v -0.529167 z m 16.93334,0 V 17.4625 h 0.52916 v -0.529167 z m 16.93333,0 V 17.4625 h 0.52917 v -0.529167 z m 16.93333,0 V 17.4625 h 0.52917 v -0.529167 z m 16.93334,0 V 17.4625 h 0.52916 v -0.529167 z m 16.93333,0 V 17.4625 h 0.52917 v -0.529167 z m 16.93333,0 V 17.4625 h 0.52917 v -0.529167 z m 16.93334,0 V 17.4625 h 0.52916 v -0.529167 z m 16.93333,0 V 17.4625 h 0.52917 v -0.529167 z m 16.93333,0 V 17.4625 h 0.52917 v -0.529167 z m 16.93334,0 V 17.4625 h 0.52916 v -0.529167 z m 16.93333,0 V 17.4625 h 0.52917 v -0.529167 z m 16.93333,0 V 17.4625 h 0.52917 v -0.529167 z m 16.93334,0 V 17.4625 h 0.52916 v -0.529167 z m 16.93333,0 V 17.4625 h 0.52917 v -0.529167 z m 16.93333,0 V 17.4625 h 0.52917 v -0.529167 z m 16.93334,0 V 17.4625 h 0.52916 v -0.529167 z m 16.93333,0 V 17.4625 h 0.52917 v -0.529167 z m 16.93333,0 V 17.4625 h 0.52917 v -0.529167 z m 16.93334,0 V 17.4625 h 0.52916 v -0.529167 z m 16.93333,0 V 17.4625 h 0.52917 V 16.933333 Z M 0,33.866667 v 0.529166 h 0.52916667 v -0.529166 z m 16.933333,0 v 0.529166 H 17.4625 v -0.529166 z m 16.933334,0 v 0.529166 h 0.529166 v -0.529166 z m 16.933333,0 v 0.529166 h 0.529167 v -0.529166 z m 16.933333,0 v 0.529166 H 68.2625 v -0.529166 z m 16.933334,0 v 0.529166 h 0.529166 v -0.529166 z m 16.933333,0 v 0.529166 h 0.52917 v -0.529166 z m 16.93333,0 v 0.529166 h 0.52917 v -0.529166 z m 16.93334,0 v 0.529166 h 0.52916 v -0.529166 z m 16.93333,0 v 0.529166 h 0.52917 v -0.529166 z m 16.93333,0 v 0.529166 h 0.52917 v -0.529166 z m 16.93334,0 v 0.529166 h 0.52916 v -0.529166 z m 16.93333,0 v 0.529166 h 0.52917 v -0.529166 z m 16.93333,0 v 0.529166 h 0.52917 v -0.529166 z m 16.93334,0 v 0.529166 h 0.52916 v -0.529166 z m 16.93333,0 v 0.529166 h 0.52917 v -0.529166 z m 16.93333,0 v 0.529166 h 0.52917 v -0.529166 z m 16.93334,0 v 0.529166 h 0.52916 v -0.529166 z m 16.93333,0 v 0.529166 h 0.52917 v -0.529166 z m 16.93333,0 v 0.529166 h 0.52917 v -0.529166 z m 16.93334,0 v 0.529166 h 0.52916 v -0.529166 z m 16.93333,0 v 0.529166 h 0.52917 v -0.529166 z m 16.93333,0 v 0.529166 h 0.52917 v -0.529166 z m 16.93334,0 v 0.529166 h 0.52916 v -0.529166 z m 16.93333,0 v 0.529166 h 0.52917 v -0.529166 z m 16.93333,0 v 0.529166 h 0.52917 v -0.529166 z m 16.93334,0 v 0.529166 h 0.52916 v -0.529166 z m 16.93333,0 v 0.529166 h 0.52917 v -0.529166 z m 16.93333,0 v 0.529166 h 0.52917 v -0.529166 z m 16.93334,0 v 0.529166 h 0.52916 v -0.529166 z m 16.93333,0 v 0.529166 h 0.52917 V 33.866667 Z M 0,50.8 v 0.529167 H 0.52916667 V 50.8 Z m 16.933333,0 v 0.529167 H 17.4625 V 50.8 Z m 16.933334,0 v 0.529167 h 0.529166 V 50.8 Z M 50.8,50.8 v 0.529167 h 0.529167 V 50.8 Z m 16.933333,0 v 0.529167 H 68.2625 V 50.8 Z m 16.933334,0 v 0.529167 h 0.529166 V 50.8 Z M 101.6,50.8 v 0.529167 h 0.52917 V 50.8 Z m 16.93333,0 v 0.529167 h 0.52917 V 50.8 Z m 16.93334,0 v 0.529167 h 0.52916 V 50.8 Z m 16.93333,0 v 0.529167 h 0.52917 V 50.8 Z m 16.93333,0 v 0.529167 h 0.52917 V 50.8 Z m 16.93334,0 v 0.529167 h 0.52916 V 50.8 Z m 16.93333,0 v 0.529167 h 0.52917 V 50.8 Z m 16.93333,0 v 0.529167 h 0.52917 V 50.8 Z m 16.93334,0 v 0.529167 h 0.52916 V 50.8 Z M 254,50.8 v 0.529167 h 0.52917 V 50.8 Z m 16.93333,0 v 0.529167 h 0.52917 V 50.8 Z m 16.93334,0 v 0.529167 h 0.52916 V 50.8 Z m 16.93333,0 v 0.529167 h 0.52917 V 50.8 Z m 16.93333,0 v 0.529167 h 0.52917 V 50.8 Z m 16.93334,0 v 0.529167 h 0.52916 V 50.8 Z m 16.93333,0 v 0.529167 h 0.52917 V 50.8 Z m 16.93333,0 v 0.529167 h 0.52917 V 50.8 Z m 16.93334,0 v 0.529167 h 0.52916 V 50.8 Z m 16.93333,0 v 0.529167 h 0.52917 V 50.8 Z m 16.93333,0 v 0.529167 h 0.52917 V 50.8 Z m 16.93334,0 v 0.529167 h 0.52916 V 50.8 Z m 16.93333,0 v 0.529167 h 0.52917 V 50.8 Z m 16.93333,0 v 0.529167 h 0.52917 V 50.8 Z m 16.93334,0 v 0.529167 h 0.52916 V 50.8 Z M 508,50.8 v 0.529167 h 0.52917 V 50.8 Z M 0,67.733333 V 68.2625 h 0.52916667 v -0.529167 z m 16.933333,0 V 68.2625 H 17.4625 v -0.529167 z m 16.933334,0 V 68.2625 h 0.529166 v -0.529167 z m 16.933333,0 V 68.2625 h 0.529167 v -0.529167 z m 16.933333,0 V 68.2625 H 68.2625 v -0.529167 z m 16.933334,0 V 68.2625 h 0.529166 v -0.529167 z m 16.933333,0 V 68.2625 h 0.52917 v -0.529167 z m 16.93333,0 V 68.2625 h 0.52917 v -0.529167 z m 16.93334,0 V 68.2625 h 0.52916 v -0.529167 z m 16.93333,0 V 68.2625 h 0.52917 v -0.529167 z m 16.93333,0 V 68.2625 h 0.52917 v -0.529167 z m 16.93334,0 V 68.2625 h 0.52916 v -0.529167 z m 16.93333,0 V 68.2625 h 0.52917 v -0.529167 z m 16.93333,0 V 68.2625 h 0.52917 v -0.529167 z m 16.93334,0 V 68.2625 h 0.52916 v -0.529167 z m 16.93333,0 V 68.2625 h 0.52917 v -0.529167 z m 16.93333,0 V 68.2625 h 0.52917 v -0.529167 z m 16.93334,0 V 68.2625 h 0.52916 v -0.529167 z m 16.93333,0 V 68.2625 h 0.52917 v -0.529167 z m 16.93333,0 V 68.2625 h 0.52917 v -0.529167 z m 16.93334,0 V 68.2625 h 0.52916 v -0.529167 z m 16.93333,0 V 68.2625 h 0.52917 v -0.529167 z m 16.93333,0 V 68.2625 h 0.52917 v -0.529167 z m 16.93334,0 V 68.2625 h 0.52916 v -0.529167 z m 16.93333,0 V 68.2625 h 0.52917 v -0.529167 z m 16.93333,0 V 68.2625 h 0.52917 v -0.529167 z m 16.93334,0 V 68.2625 h 0.52916 v -0.529167 z m 16.93333,0 V 68.2625 h 0.52917 v -0.529167 z m 16.93333,0 V 68.2625 h 0.52917 v -0.529167 z m 16.93334,0 V 68.2625 h 0.52916 v -0.529167 z m 16.93333,0 V 68.2625 h 0.52917 V 67.733333 Z M 0,84.666667 v 0.529166 h 0.52916667 v -0.529166 z m 16.933333,0 v 0.529166 H 17.4625 v -0.529166 z m 16.933334,0 v 0.529166 h 0.529166 v -0.529166 z m 16.933333,0 v 0.529166 h 0.529167 v -0.529166 z m 16.933333,0 v 0.529166 H 68.2625 v -0.529166 z m 16.933334,0 v 0.529166 h 0.529166 v -0.529166 z m 16.933333,0 v 0.529166 h 0.52917 v -0.529166 z m 16.93333,0 v 0.529166 h 0.52917 v -0.529166 z m 16.93334,0 v 0.529166 h 0.52916 v -0.529166 z m 16.93333,0 v 0.529166 h 0.52917 v -0.529166 z m 16.93333,0 v 0.529166 h 0.52917 v -0.529166 z m 16.93334,0 v 0.529166 h 0.52916 v -0.529166 z m 16.93333,0 v 0.529166 h 0.52917 v -0.529166 z m 16.93333,0 v 0.529166 h 0.52917 v -0.529166 z m 16.93334,0 v 0.529166 h 0.52916 v -0.529166 z m 16.93333,0 v 0.529166 h 0.52917 v -0.529166 z m 16.93333,0 v 0.529166 h 0.52917 v -0.529166 z m 16.93334,0 v 0.529166 h 0.52916 v -0.529166 z m 16.93333,0 v 0.529166 h 0.52917 v -0.529166 z m 16.93333,0 v 0.529166 h 0.52917 v -0.529166 z m 16.93334,0 v 0.529166 h 0.52916 v -0.529166 z m 16.93333,0 v 0.529166 h 0.52917 v -0.529166 z m 16.93333,0 v 0.529166 h 0.52917 v -0.529166 z m 16.93334,0 v 0.529166 h 0.52916 v -0.529166 z m 16.93333,0 v 0.529166 h 0.52917 v -0.529166 z m 16.93333,0 v 0.529166 h 0.52917 v -0.529166 z m 16.93334,0 v 0.529166 h 0.52916 v -0.529166 z m 16.93333,0 v 0.529166 h 0.52917 v -0.529166 z m 16.93333,0 v 0.529166 h 0.52917 v -0.529166 z m 16.93334,0 v 0.529166 h 0.52916 v -0.529166 z m 16.93333,0 v 0.529166 h 0.52917 V 84.666667 Z M 0,101.6 v 0.52917 H 0.52916667 V 101.6 Z m 16.933333,0 v 0.52917 H 17.4625 V 101.6 Z m 16.933334,0 v 0.52917 h 0.529166 V 101.6 Z M 50.8,101.6 v 0.52917 h 0.529167 V 101.6 Z m 16.933333,0 v 0.52917 H 68.2625 V 101.6 Z m 16.933334,0 v 0.52917 h 0.529166 V 101.6 Z m 16.933333,0 v 0.52917 h 0.52917 V 101.6 Z m 16.93333,0 v 0.52917 h 0.52917 V 101.6 Z m 16.93334,0 v 0.52917 h 0.52916 V 101.6 Z m 16.93333,0 v 0.52917 h 0.52917 V 101.6 Z m 16.93333,0 v 0.52917 h 0.52917 V 101.6 Z m 16.93334,0 v 0.52917 h 0.52916 V 101.6 Z m 16.93333,0 v 0.52917 h 0.52917 V 101.6 Z m 16.93333,0 v 0.52917 h 0.52917 V 101.6 Z m 16.93334,0 v 0.52917 h 0.52916 V 101.6 Z M 254,101.6 v 0.52917 h 0.52917 V 101.6 Z m 16.93333,0 v 0.52917 h 0.52917 V 101.6 Z m 16.93334,0 v 0.52917 h 0.52916 V 101.6 Z m 16.93333,0 v 0.52917 h 0.52917 V 101.6 Z m 16.93333,0 v 0.52917 h 0.52917 V 101.6 Z m 16.93334,0 v 0.52917 h 0.52916 V 101.6 Z m 16.93333,0 v 0.52917 h 0.52917 V 101.6 Z m 16.93333,0 v 0.52917 h 0.52917 V 101.6 Z m 16.93334,0 v 0.52917 h 0.52916 V 101.6 Z m 16.93333,0 v 0.52917 h 0.52917 V 101.6 Z m 16.93333,0 v 0.52917 h 0.52917 V 101.6 Z m 16.93334,0 v 0.52917 h 0.52916 V 101.6 Z m 16.93333,0 v 0.52917 h 0.52917 V 101.6 Z m 16.93333,0 v 0.52917 h 0.52917 V 101.6 Z m 16.93334,0 v 0.52917 h 0.52916 V 101.6 Z M 508,101.6 v 0.52917 h 0.52917 V 101.6 Z M 0,118.53333 v 0.52917 h 0.52916667 v -0.52917 z m 16.933333,0 v 0.52917 H 17.4625 v -0.52917 z m 16.933334,0 v 0.52917 h 0.529166 v -0.52917 z m 16.933333,0 v 0.52917 h 0.529167 v -0.52917 z m 16.933333,0 v 0.52917 H 68.2625 v -0.52917 z m 16.933334,0 v 0.52917 h 0.529166 v -0.52917 z m 16.933333,0 v 0.52917 h 0.52917 v -0.52917 z m 16.93333,0 v 0.52917 h 0.52917 v -0.52917 z m 16.93334,0 v 0.52917 h 0.52916 v -0.52917 z m 16.93333,0 v 0.52917 h 0.52917 v -0.52917 z m 16.93333,0 v 0.52917 h 0.52917 v -0.52917 z m 16.93334,0 v 0.52917 h 0.52916 v -0.52917 z m 16.93333,0 v 0.52917 h 0.52917 v -0.52917 z m 16.93333,0 v 0.52917 h 0.52917 v -0.52917 z m 16.93334,0 v 0.52917 h 0.52916 v -0.52917 z m 16.93333,0 v 0.52917 h 0.52917 v -0.52917 z m 16.93333,0 v 0.52917 h 0.52917 v -0.52917 z m 16.93334,0 v 0.52917 h 0.52916 v -0.52917 z m 16.93333,0 v 0.52917 h 0.52917 v -0.52917 z m 16.93333,0 v 0.52917 h 0.52917 v -0.52917 z m 16.93334,0 v 0.52917 h 0.52916 v -0.52917 z m 16.93333,0 v 0.52917 h 0.52917 v -0.52917 z m 16.93333,0 v 0.52917 h 0.52917 v -0.52917 z m 16.93334,0 v 0.52917 h 0.52916 v -0.52917 z m 16.93333,0 v 0.52917 h 0.52917 v -0.52917 z m 16.93333,0 v 0.52917 h 0.52917 v -0.52917 z m 16.93334,0 v 0.52917 h 0.52916 v -0.52917 z m 16.93333,0 v 0.52917 h 0.52917 v -0.52917 z m 16.93333,0 v 0.52917 h 0.52917 v -0.52917 z m 16.93334,0 v 0.52917 h 0.52916 v -0.52917 z m 16.93333,0 v 0.52917 h 0.52917 v -0.52917 z M 0,135.46667 v 0.52916 h 0.52916667 v -0.52916 z m 16.933333,0 v 0.52916 H 17.4625 v -0.52916 z m 16.933334,0 v 0.52916 h 0.529166 v -0.52916 z m 16.933333,0 v 0.52916 h 0.529167 v -0.52916 z m 16.933333,0 v 0.52916 H 68.2625 v -0.52916 z m 16.933334,0 v 0.52916 h 0.529166 v -0.52916 z m 16.933333,0 v 0.52916 h 0.52917 v -0.52916 z m 16.93333,0 v 0.52916 h 0.52917 v -0.52916 z m 16.93334,0 v 0.52916 h 0.52916 v -0.52916 z m 16.93333,0 v 0.52916 h 0.52917 v -0.52916 z m 16.93333,0 v 0.52916 h 0.52917 v -0.52916 z m 16.93334,0 v 0.52916 h 0.52916 v -0.52916 z m 16.93333,0 v 0.52916 h 0.52917 v -0.52916 z m 16.93333,0 v 0.52916 h 0.52917 v -0.52916 z m 16.93334,0 v 0.52916 h 0.52916 v -0.52916 z m 16.93333,0 v 0.52916 h 0.52917 v -0.52916 z m 16.93333,0 v 0.52916 h 0.52917 v -0.52916 z m 16.93334,0 v 0.52916 h 0.52916 v -0.52916 z m 16.93333,0 v 0.52916 h 0.52917 v -0.52916 z m 16.93333,0 v 0.52916 h 0.52917 v -0.52916 z m 16.93334,0 v 0.52916 h 0.52916 v -0.52916 z m 16.93333,0 v 0.52916 h 0.52917 v -0.52916 z m 16.93333,0 v 0.52916 h 0.52917 v -0.52916 z m 16.93334,0 v 0.52916 h 0.52916 v -0.52916 z m 16.93333,0 v 0.52916 h 0.52917 v -0.52916 z m 16.93333,0 v 0.52916 h 0.52917 v -0.52916 z m 16.93334,0 v 0.52916 h 0.52916 v -0.52916 z m 16.93333,0 v 0.52916 h 0.52917 v -0.52916 z m 16.93333,0 v 0.52916 h 0.52917 v -0.52916 z m 16.93334,0 v 0.52916 h 0.52916 v -0.52916 z m 16.93333,0 v 0.52916 h 0.52917 v -0.52916 z M 0,152.4 v 0.52917 H 0.52916667 V 152.4 Z m 16.933333,0 v 0.52917 H 17.4625 V 152.4 Z m 16.933334,0 v 0.52917 h 0.529166 V 152.4 Z M 50.8,152.4 v 0.52917 h 0.529167 V 152.4 Z m 16.933333,0 v 0.52917 H 68.2625 V 152.4 Z m 16.933334,0 v 0.52917 h 0.529166 V 152.4 Z m 16.933333,0 v 0.52917 h 0.52917 V 152.4 Z m 16.93333,0 v 0.52917 h 0.52917 V 152.4 Z m 16.93334,0 v 0.52917 h 0.52916 V 152.4 Z m 16.93333,0 v 0.52917 h 0.52917 V 152.4 Z m 16.93333,0 v 0.52917 h 0.52917 V 152.4 Z m 16.93334,0 v 0.52917 h 0.52916 V 152.4 Z m 16.93333,0 v 0.52917 h 0.52917 V 152.4 Z m 16.93333,0 v 0.52917 h 0.52917 V 152.4 Z m 16.93334,0 v 0.52917 h 0.52916 V 152.4 Z M 254,152.4 v 0.52917 h 0.52917 V 152.4 Z m 16.93333,0 v 0.52917 h 0.52917 V 152.4 Z m 16.93334,0 v 0.52917 h 0.52916 V 152.4 Z m 16.93333,0 v 0.52917 h 0.52917 V 152.4 Z m 16.93333,0 v 0.52917 h 0.52917 V 152.4 Z m 16.93334,0 v 0.52917 h 0.52916 V 152.4 Z m 16.93333,0 v 0.52917 h 0.52917 V 152.4 Z m 16.93333,0 v 0.52917 h 0.52917 V 152.4 Z m 16.93334,0 v 0.52917 h 0.52916 V 152.4 Z m 16.93333,0 v 0.52917 h 0.52917 V 152.4 Z m 16.93333,0 v 0.52917 h 0.52917 V 152.4 Z m 16.93334,0 v 0.52917 h 0.52916 V 152.4 Z m 16.93333,0 v 0.52917 h 0.52917 V 152.4 Z m 16.93333,0 v 0.52917 h 0.52917 V 152.4 Z m 16.93334,0 v 0.52917 h 0.52916 V 152.4 Z M 508,152.4 v 0.52917 h 0.52917 V 152.4 Z M 0,169.33333 v 0.52917 h 0.52916667 v -0.52917 z m 16.933333,0 v 0.52917 H 17.4625 v -0.52917 z m 16.933334,0 v 0.52917 h 0.529166 v -0.52917 z m 16.933333,0 v 0.52917 h 0.529167 v -0.52917 z m 16.933333,0 v 0.52917 H 68.2625 v -0.52917 z m 16.933334,0 v 0.52917 h 0.529166 v -0.52917 z m 16.933333,0 v 0.52917 h 0.52917 v -0.52917 z m 16.93333,0 v 0.52917 h 0.52917 v -0.52917 z m 16.93334,0 v 0.52917 h 0.52916 v -0.52917 z m 16.93333,0 v 0.52917 h 0.52917 v -0.52917 z m 16.93333,0 v 0.52917 h 0.52917 v -0.52917 z m 16.93334,0 v 0.52917 h 0.52916 v -0.52917 z m 16.93333,0 v 0.52917 h 0.52917 v -0.52917 z m 16.93333,0 v 0.52917 h 0.52917 v -0.52917 z m 16.93334,0 v 0.52917 h 0.52916 v -0.52917 z m 16.93333,0 v 0.52917 h 0.52917 v -0.52917 z m 16.93333,0 v 0.52917 h 0.52917 v -0.52917 z m 16.93334,0 v 0.52917 h 0.52916 v -0.52917 z m 16.93333,0 v 0.52917 h 0.52917 v -0.52917 z m 16.93333,0 v 0.52917 h 0.52917 v -0.52917 z m 16.93334,0 v 0.52917 h 0.52916 v -0.52917 z m 16.93333,0 v 0.52917 h 0.52917 v -0.52917 z m 16.93333,0 v 0.52917 h 0.52917 v -0.52917 z m 16.93334,0 v 0.52917 h 0.52916 v -0.52917 z m 16.93333,0 v 0.52917 h 0.52917 v -0.52917 z m 16.93333,0 v 0.52917 h 0.52917 v -0.52917 z m 16.93334,0 v 0.52917 h 0.52916 v -0.52917 z m 16.93333,0 v 0.52917 h 0.52917 v -0.52917 z m 16.93333,0 v 0.52917 h 0.52917 v -0.52917 z m 16.93334,0 v 0.52917 h 0.52916 v -0.52917 z m 16.93333,0 v 0.52917 h 0.52917 v -0.52917 z M 0,186.26667 v 0.52916 h 0.52916667 v -0.52916 z m 16.933333,0 v 0.52916 H 17.4625 v -0.52916 z m 16.933334,0 v 0.52916 h 0.529166 v -0.52916 z m 16.933333,0 v 0.52916 h 0.529167 v -0.52916 z m 16.933333,0 v 0.52916 H 68.2625 v -0.52916 z m 16.933334,0 v 0.52916 h 0.529166 v -0.52916 z m 16.933333,0 v 0.52916 h 0.52917 v -0.52916 z m 16.93333,0 v 0.52916 h 0.52917 v -0.52916 z m 16.93334,0 v 0.52916 h 0.52916 v -0.52916 z m 16.93333,0 v 0.52916 h 0.52917 v -0.52916 z m 16.93333,0 v 0.52916 h 0.52917 v -0.52916 z m 16.93334,0 v 0.52916 h 0.52916 v -0.52916 z m 16.93333,0 v 0.52916 h 0.52917 v -0.52916 z m 16.93333,0 v 0.52916 h 0.52917 v -0.52916 z m 16.93334,0 v 0.52916 h 0.52916 v -0.52916 z m 16.93333,0 v 0.52916 h 0.52917 v -0.52916 z m 16.93333,0 v 0.52916 h 0.52917 v -0.52916 z m 16.93334,0 v 0.52916 h 0.52916 v -0.52916 z m 16.93333,0 v 0.52916 h 0.52917 v -0.52916 z m 16.93333,0 v 0.52916 h 0.52917 v -0.52916 z m 16.93334,0 v 0.52916 h 0.52916 v -0.52916 z m 16.93333,0 v 0.52916 h 0.52917 v -0.52916 z m 16.93333,0 v 0.52916 h 0.52917 v -0.52916 z m 16.93334,0 v 0.52916 h 0.52916 v -0.52916 z m 16.93333,0 v 0.52916 h 0.52917 v -0.52916 z m 16.93333,0 v 0.52916 h 0.52917 v -0.52916 z m 16.93334,0 v 0.52916 h 0.52916 v -0.52916 z m 16.93333,0 v 0.52916 h 0.52917 v -0.52916 z m 16.93333,0 v 0.52916 h 0.52917 v -0.52916 z m 16.93334,0 v 0.52916 h 0.52916 v -0.52916 z m 16.93333,0 v 0.52916 h 0.52917 v -0.52916 z M 0,203.2 v 0.52917 H 0.52916667 V 203.2 Z m 16.933333,0 v 0.52917 H 17.4625 V 203.2 Z m 16.933334,0 v 0.52917 h 0.529166 V 203.2 Z M 50.8,203.2 v 0.52917 h 0.529167 V 203.2 Z m 16.933333,0 v 0.52917 H 68.2625 V 203.2 Z m 16.933334,0 v 0.52917 h 0.529166 V 203.2 Z m 16.933333,0 v 0.52917 h 0.52917 V 203.2 Z m 16.93333,0 v 0.52917 h 0.52917 V 203.2 Z m 16.93334,0 v 0.52917 h 0.52916 V 203.2 Z m 16.93333,0 v 0.52917 h 0.52917 V 203.2 Z m 16.93333,0 v 0.52917 h 0.52917 V 203.2 Z m 16.93334,0 v 0.52917 h 0.52916 V 203.2 Z m 16.93333,0 v 0.52917 h 0.52917 V 203.2 Z m 16.93333,0 v 0.52917 h 0.52917 V 203.2 Z m 16.93334,0 v 0.52917 h 0.52916 V 203.2 Z M 254,203.2 v 0.52917 h 0.52917 V 203.2 Z m 16.93333,0 v 0.52917 h 0.52917 V 203.2 Z m 16.93334,0 v 0.52917 h 0.52916 V 203.2 Z m 16.93333,0 v 0.52917 h 0.52917 V 203.2 Z m 16.93333,0 v 0.52917 h 0.52917 V 203.2 Z m 16.93334,0 v 0.52917 h 0.52916 V 203.2 Z m 16.93333,0 v 0.52917 h 0.52917 V 203.2 Z m 16.93333,0 v 0.52917 h 0.52917 V 203.2 Z m 16.93334,0 v 0.52917 h 0.52916 V 203.2 Z m 16.93333,0 v 0.52917 h 0.52917 V 203.2 Z m 16.93333,0 v 0.52917 h 0.52917 V 203.2 Z m 16.93334,0 v 0.52917 h 0.52916 V 203.2 Z m 16.93333,0 v 0.52917 h 0.52917 V 203.2 Z m 16.93333,0 v 0.52917 h 0.52917 V 203.2 Z m 16.93334,0 v 0.52917 h 0.52916 V 203.2 Z M 508,203.2 v 0.52917 h 0.52917 V 203.2 Z M 0,220.13333 v 0.52917 h 0.52916667 v -0.52917 z m 16.933333,0 v 0.52917 H 17.4625 v -0.52917 z m 16.933334,0 v 0.52917 h 0.529166 v -0.52917 z m 16.933333,0 v 0.52917 h 0.529167 v -0.52917 z m 16.933333,0 v 0.52917 H 68.2625 v -0.52917 z m 16.933334,0 v 0.52917 h 0.529166 v -0.52917 z m 16.933333,0 v 0.52917 h 0.52917 v -0.52917 z m 16.93333,0 v 0.52917 h 0.52917 v -0.52917 z m 16.93334,0 v 0.52917 h 0.52916 v -0.52917 z m 16.93333,0 v 0.52917 h 0.52917 v -0.52917 z m 16.93333,0 v 0.52917 h 0.52917 v -0.52917 z m 16.93334,0 v 0.52917 h 0.52916 v -0.52917 z m 16.93333,0 v 0.52917 h 0.52917 v -0.52917 z m 16.93333,0 v 0.52917 h 0.52917 v -0.52917 z m 16.93334,0 v 0.52917 h 0.52916 v -0.52917 z m 16.93333,0 v 0.52917 h 0.52917 v -0.52917 z m 16.93333,0 v 0.52917 h 0.52917 v -0.52917 z m 16.93334,0 v 0.52917 h 0.52916 v -0.52917 z m 16.93333,0 v 0.52917 h 0.52917 v -0.52917 z m 16.93333,0 v 0.52917 h 0.52917 v -0.52917 z m 16.93334,0 v 0.52917 h 0.52916 v -0.52917 z m 16.93333,0 v 0.52917 h 0.52917 v -0.52917 z m 16.93333,0 v 0.52917 h 0.52917 v -0.52917 z m 16.93334,0 v 0.52917 h 0.52916 v -0.52917 z m 16.93333,0 v 0.52917 h 0.52917 v -0.52917 z m 16.93333,0 v 0.52917 h 0.52917 v -0.52917 z m 16.93334,0 v 0.52917 h 0.52916 v -0.52917 z m 16.93333,0 v 0.52917 h 0.52917 v -0.52917 z m 16.93333,0 v 0.52917 h 0.52917 v -0.52917 z m 16.93334,0 v 0.52917 h 0.52916 v -0.52917 z m 16.93333,0 v 0.52917 h 0.52917 v -0.52917 z M 0,237.06667 v 0.52916 h 0.52916667 v -0.52916 z m 16.933333,0 v 0.52916 H 17.4625 v -0.52916 z m 16.933334,0 v 0.52916 h 0.529166 v -0.52916 z m 16.933333,0 v 0.52916 h 0.529167 v -0.52916 z m 16.933333,0 v 0.52916 H 68.2625 v -0.52916 z m 16.933334,0 v 0.52916 h 0.529166 v -0.52916 z m 16.933333,0 v 0.52916 h 0.52917 v -0.52916 z m 16.93333,0 v 0.52916 h 0.52917 v -0.52916 z m 16.93334,0 v 0.52916 h 0.52916 v -0.52916 z m 16.93333,0 v 0.52916 h 0.52917 v -0.52916 z m 16.93333,0 v 0.52916 h 0.52917 v -0.52916 z m 16.93334,0 v 0.52916 h 0.52916 v -0.52916 z m 16.93333,0 v 0.52916 h 0.52917 v -0.52916 z m 16.93333,0 v 0.52916 h 0.52917 v -0.52916 z m 16.93334,0 v 0.52916 h 0.52916 v -0.52916 z m 16.93333,0 v 0.52916 h 0.52917 v -0.52916 z m 16.93333,0 v 0.52916 h 0.52917 v -0.52916 z m 16.93334,0 v 0.52916 h 0.52916 v -0.52916 z m 16.93333,0 v 0.52916 h 0.52917 v -0.52916 z m 16.93333,0 v 0.52916 h 0.52917 v -0.52916 z m 16.93334,0 v 0.52916 h 0.52916 v -0.52916 z m 16.93333,0 v 0.52916 h 0.52917 v -0.52916 z m 16.93333,0 v 0.52916 h 0.52917 v -0.52916 z m 16.93334,0 v 0.52916 h 0.52916 v -0.52916 z m 16.93333,0 v 0.52916 h 0.52917 v -0.52916 z m 16.93333,0 v 0.52916 h 0.52917 v -0.52916 z m 16.93334,0 v 0.52916 h 0.52916 v -0.52916 z m 16.93333,0 v 0.52916 h 0.52917 v -0.52916 z m 16.93333,0 v 0.52916 h 0.52917 v -0.52916 z m 16.93334,0 v 0.52916 h 0.52916 v -0.52916 z m 16.93333,0 v 0.52916 h 0.52917 v -0.52916 z M 0,254 v 0.52917 H 0.52916667 V 254 Z m 16.933333,0 v 0.52917 H 17.4625 V 254 Z m 16.933334,0 v 0.52917 h 0.529166 V 254 Z M 50.8,254 v 0.52917 h 0.529167 V 254 Z m 16.933333,0 v 0.52917 H 68.2625 V 254 Z m 16.933334,0 v 0.52917 h 0.529166 V 254 Z M 101.6,254 v 0.52917 h 0.52917 V 254 Z m 16.93333,0 v 0.52917 h 0.52917 V 254 Z m 16.93334,0 v 0.52917 h 0.52916 V 254 Z M 152.4,254 v 0.52917 h 0.52917 V 254 Z m 16.93333,0 v 0.52917 h 0.52917 V 254 Z m 16.93334,0 v 0.52917 h 0.52916 V 254 Z M 203.2,254 v 0.52917 h 0.52917 V 254 Z m 16.93333,0 v 0.52917 h 0.52917 V 254 Z m 16.93334,0 v 0.52917 h 0.52916 V 254 Z M 254,254 v 0.52917 h 0.52917 V 254 Z m 16.93333,0 v 0.52917 h 0.52917 V 254 Z m 16.93334,0 v 0.52917 h 0.52916 V 254 Z M 304.8,254 v 0.52917 h 0.52917 V 254 Z m 16.93333,0 v 0.52917 h 0.52917 V 254 Z m 16.93334,0 v 0.52917 h 0.52916 V 254 Z M 355.6,254 v 0.52917 h 0.52917 V 254 Z m 16.93333,0 v 0.52917 h 0.52917 V 254 Z m 16.93334,0 v 0.52917 h 0.52916 V 254 Z M 406.4,254 v 0.52917 h 0.52917 V 254 Z m 16.93333,0 v 0.52917 h 0.52917 V 254 Z m 16.93334,0 v 0.52917 h 0.52916 V 254 Z M 457.2,254 v 0.52917 h 0.52917 V 254 Z m 16.93333,0 v 0.52917 h 0.52917 V 254 Z m 16.93334,0 v 0.52917 h 0.52916 V 254 Z M 508,254 v 0.52917 h 0.52917 V 254 Z M 0,270.93333 v 0.52917 h 0.52916667 v -0.52917 z m 16.933333,0 v 0.52917 H 17.4625 v -0.52917 z m 16.933334,0 v 0.52917 h 0.529166 v -0.52917 z m 16.933333,0 v 0.52917 h 0.529167 v -0.52917 z m 16.933333,0 v 0.52917 H 68.2625 v -0.52917 z m 16.933334,0 v 0.52917 h 0.529166 v -0.52917 z m 16.933333,0 v 0.52917 h 0.52917 v -0.52917 z m 16.93333,0 v 0.52917 h 0.52917 v -0.52917 z m 16.93334,0 v 0.52917 h 0.52916 v -0.52917 z m 16.93333,0 v 0.52917 h 0.52917 v -0.52917 z m 16.93333,0 v 0.52917 h 0.52917 v -0.52917 z m 16.93334,0 v 0.52917 h 0.52916 v -0.52917 z m 16.93333,0 v 0.52917 h 0.52917 v -0.52917 z m 16.93333,0 v 0.52917 h 0.52917 v -0.52917 z m 16.93334,0 v 0.52917 h 0.52916 v -0.52917 z m 16.93333,0 v 0.52917 h 0.52917 v -0.52917 z m 16.93333,0 v 0.52917 h 0.52917 v -0.52917 z m 16.93334,0 v 0.52917 h 0.52916 v -0.52917 z m 16.93333,0 v 0.52917 h 0.52917 v -0.52917 z m 16.93333,0 v 0.52917 h 0.52917 v -0.52917 z m 16.93334,0 v 0.52917 h 0.52916 v -0.52917 z m 16.93333,0 v 0.52917 h 0.52917 v -0.52917 z m 16.93333,0 v 0.52917 h 0.52917 v -0.52917 z m 16.93334,0 v 0.52917 h 0.52916 v -0.52917 z m 16.93333,0 v 0.52917 h 0.52917 v -0.52917 z m 16.93333,0 v 0.52917 h 0.52917 v -0.52917 z m 16.93334,0 v 0.52917 h 0.52916 v -0.52917 z m 16.93333,0 v 0.52917 h 0.52917 v -0.52917 z m 16.93333,0 v 0.52917 h 0.52917 v -0.52917 z m 16.93334,0 v 0.52917 h 0.52916 v -0.52917 z m 16.93333,0 v 0.52917 h 0.52917 v -0.52917 z" /></g><g
     inkscape:groupmode="layer"
     id="layer2"
     inkscape:label="Клетка"
     transform="translate(33.097269,33.577564)"
     sodipodi:insensitive="true"><path
       id="rect53"
       style="mix-blend-mode:normal;fill:url(#linearGradient115);stroke:none;stroke-width:0.529167;stroke-linecap:square"
       d="m 33.097269,-33.577564 v 0.529167 16.404166 0.529167 16.40416667 0.52916666 16.40416667 0.529167 16.404166 0.529167 16.404167 0.529166 16.404167 0.529167 16.404166 0.529167 16.404164 0.52917 16.40417 0.52916 16.40417 0.52917 16.40416 0.52917 16.40417 0.52916 16.40417 0.52917 16.40416 0.52917 16.40417 0.52916 16.40417 0.52917 14.2875 h -0.529167 v -14.2875 H 16.163936 v 14.2875 h -0.529167 v -14.2875 H -0.76939767 v 14.2875 H -1.2985643 v -14.2875 H -17.702731 v 14.2875 h -0.529167 v -14.2875 h -16.404166 v 14.2875 h -0.529167 v -14.2875 h -16.404167 v 14.2875 h -0.529166 v -14.2875 h -16.404167 v 14.2875 h -0.529167 v -14.2875 h -16.404166 v 14.2875 h -0.529167 v -14.2875 H -102.3694 v 14.2875 h -0.52916 v -14.2875 h -16.40417 v 14.2875 h -0.52917 v -14.2875 h -16.40416 v 14.2875 h -0.52917 v -14.2875 h -16.40417 v 14.2875 h -0.52916 v -14.2875 h -16.40417 v 14.2875 h -0.52917 v -14.2875 h -16.40416 v 14.2875 h -0.52917 v -14.2875 h -16.40417 v 14.2875 h -0.52916 v -14.2875 h -16.40417 v 14.2875 h -0.52917 v -14.2875 h -16.40416 v 14.2875 h -0.52917 v -14.2875 h -16.40417 v 14.2875 h -0.52916 v -14.2875 h -16.40417 v 14.2875 h -0.52917 v -14.2875 h -16.40416 v 14.2875 h -0.52917 v -14.2875 h -16.40417 v 14.2875 h -0.52916 v -14.2875 h -16.40417 v 14.2875 h -0.52917 v -14.2875 h -16.40416 v 14.2875 h -0.52917 v -14.2875 h -16.40417 v 14.2875 h -0.52916 v -14.2875 h -16.40417 v 14.2875 h -0.52917 v -14.2875 h -16.40416 v 14.2875 h -0.52917 v -14.2875 h -16.40417 v 14.2875 h -0.52916 v -14.2875 h -16.40417 v 14.2875 h -0.52917 v -14.2875 h -16.40416 v 14.2875 h -0.52917 v -14.2875 h -16.40417 v 14.2875 h -0.52916 v -14.2875 h -16.40417 v 14.2875 h -0.52917 V -33.577564 h 0.52917 507.470832 z m -0.529167,0.529167 H 16.163936 v 16.404166 h 16.404166 z m -16.933333,0 H -0.76939767 v 16.404166 H 15.634769 Z m -16.9333333,0 H -17.702731 v 16.404166 h 16.4041667 z m -16.9333337,0 h -16.404166 v 16.404166 h 16.404166 z m -16.933333,0 h -16.404167 v 16.404166 h 16.404167 z m -16.933333,0 h -16.404167 v 16.404166 h 16.404167 z m -16.933334,0 h -16.404166 v 16.404166 h 16.404166 z m -16.933333,0 H -102.3694 v 16.404166 h 16.404169 z m -16.933329,0 h -16.40417 v 16.404166 h 16.40417 z m -16.93334,0 h -16.40416 v 16.404166 h 16.40416 z m -16.93333,0 h -16.40417 v 16.404166 h 16.40417 z m -16.93333,0 h -16.40417 v 16.404166 h 16.40417 z m -16.93334,0 h -16.40416 v 16.404166 h 16.40416 z m -16.93333,0 h -16.40417 v 16.404166 h 16.40417 z m -16.93333,0 h -16.40417 v 16.404166 h 16.40417 z m -16.93334,0 h -16.40416 v 16.404166 h 16.40416 z m -16.93333,0 h -16.40417 v 16.404166 h 16.40417 z m -16.93333,0 h -16.40417 v 16.404166 h 16.40417 z m -16.93334,0 h -16.40416 v 16.404166 h 16.40416 z m -16.93333,0 h -16.40417 v 16.404166 h 16.40417 z m -16.93333,0 h -16.40417 v 16.404166 h 16.40417 z m -16.93334,0 h -16.40416 v 16.404166 h 16.40416 z m -16.93333,0 h -16.40417 v 16.404166 h 16.40417 z m -16.93333,0 h -16.40417 v 16.404166 h 16.40417 z m -16.93334,0 h -16.40416 v 16.404166 h 16.40416 z m -16.93333,0 h -16.40417 v 16.404166 h 16.40417 z m -16.93333,0 h -16.40417 v 16.404166 h 16.40417 z m -16.93334,0 h -16.40416 v 16.404166 h 16.40416 z m -16.93333,0 h -16.40417 v 16.404166 h 16.40417 z m -16.93333,0 h -16.40417 v 16.404166 h 16.40417 z M 32.568102,-16.115064 H 16.163936 V 0.28910267 h 16.404166 z m -16.933333,0 H -0.76939767 V 0.28910267 H 15.634769 Z m -16.9333333,0 H -17.702731 V 0.28910267 h 16.4041667 z m -16.9333337,0 H -34.636064 V 0.28910267 h 16.404166 z m -16.933333,0 H -51.569398 V 0.28910267 h 16.404167 z m -16.933333,0 H -68.502731 V 0.28910267 h 16.404167 z m -16.933334,0 H -85.436064 V 0.28910267 h 16.404166 z m -16.933333,0 H -102.3694 V 0.28910267 h 16.404169 z m -16.933329,0 h -16.40417 V 0.28910267 h 16.40417 z m -16.93334,0 h -16.40416 V 0.28910267 h 16.40416 z m -16.93333,0 H -153.1694 V 0.28910267 h 16.40417 z m -16.93333,0 h -16.40417 V 0.28910267 h 16.40417 z m -16.93334,0 h -16.40416 V 0.28910267 h 16.40416 z m -16.93333,0 H -203.9694 V 0.28910267 h 16.40417 z m -16.93333,0 h -16.40417 V 0.28910267 h 16.40417 z m -16.93334,0 h -16.40416 V 0.28910267 h 16.40416 z m -16.93333,0 H -254.7694 V 0.28910267 h 16.40417 z m -16.93333,0 h -16.40417 V 0.28910267 h 16.40417 z m -16.93334,0 h -16.40416 V 0.28910267 h 16.40416 z m -16.93333,0 H -305.5694 V 0.28910267 h 16.40417 z m -16.93333,0 h -16.40417 V 0.28910267 h 16.40417 z m -16.93334,0 h -16.40416 V 0.28910267 h 16.40416 z m -16.93333,0 H -356.3694 V 0.28910267 h 16.40417 z m -16.93333,0 h -16.40417 V 0.28910267 h 16.40417 z m -16.93334,0 h -16.40416 V 0.28910267 h 16.40416 z m -16.93333,0 H -407.1694 V 0.28910267 h 16.40417 z m -16.93333,0 h -16.40417 V 0.28910267 h 16.40417 z m -16.93334,0 h -16.40416 V 0.28910267 h 16.40416 z m -16.93333,0 H -457.9694 V 0.28910267 h 16.40417 z m -16.93333,0 h -16.40417 V 0.28910267 h 16.40417 z M 32.568102,0.81826933 H 16.163936 V 17.222436 h 16.404166 z m -16.933333,0 H -0.76939767 V 17.222436 H 15.634769 Z m -16.9333333,0 H -17.702731 V 17.222436 h 16.4041667 z m -16.9333337,0 H -34.636064 V 17.222436 h 16.404166 z m -16.933333,0 H -51.569398 V 17.222436 h 16.404167 z m -16.933333,0 H -68.502731 V 17.222436 h 16.404167 z m -16.933334,0 H -85.436064 V 17.222436 h 16.404166 z m -16.933333,0 H -102.3694 V 17.222436 h 16.404169 z m -16.933329,0 h -16.40417 V 17.222436 h 16.40417 z m -16.93334,0 h -16.40416 V 17.222436 h 16.40416 z m -16.93333,0 H -153.1694 V 17.222436 h 16.40417 z m -16.93333,0 h -16.40417 V 17.222436 h 16.40417 z m -16.93334,0 h -16.40416 V 17.222436 h 16.40416 z m -16.93333,0 H -203.9694 V 17.222436 h 16.40417 z m -16.93333,0 h -16.40417 V 17.222436 h 16.40417 z m -16.93334,0 h -16.40416 V 17.222436 h 16.40416 z m -16.93333,0 H -254.7694 V 17.222436 h 16.40417 z m -16.93333,0 h -16.40417 V 17.222436 h 16.40417 z m -16.93334,0 h -16.40416 V 17.222436 h 16.40416 z m -16.93333,0 H -305.5694 V 17.222436 h 16.40417 z m -16.93333,0 h -16.40417 V 17.222436 h 16.40417 z m -16.93334,0 h -16.40416 V 17.222436 h 16.40416 z m -16.93333,0 H -356.3694 V 17.222436 h 16.40417 z m -16.93333,0 h -16.40417 V 17.222436 h 16.40417 z m -16.93334,0 h -16.40416 V 17.222436 h 16.40416 z m -16.93333,0 H -407.1694 V 17.222436 h 16.40417 z m -16.93333,0 h -16.40417 V 17.222436 h 16.40417 z m -16.93334,0 h -16.40416 V 17.222436 h 16.40416 z m -16.93333,0 H -457.9694 V 17.222436 h 16.40417 z m -16.93333,0 h -16.40417 V 17.222436 h 16.40417 z M 32.568102,17.751603 H 16.163936 v 16.404166 h 16.404166 z m -16.933333,0 H -0.76939767 V 34.155769 H 15.634769 Z m -16.9333333,0 H -17.702731 v 16.404166 h 16.4041667 z m -16.9333337,0 h -16.404166 v 16.404166 h 16.404166 z m -16.933333,0 h -16.404167 v 16.404166 h 16.404167 z m -16.933333,0 h -16.404167 v 16.404166 h 16.404167 z m -16.933334,0 h -16.404166 v 16.404166 h 16.404166 z m -16.933333,0 H -102.3694 v 16.404166 h 16.404169 z m -16.933329,0 h -16.40417 v 16.404166 h 16.40417 z m -16.93334,0 h -16.40416 v 16.404166 h 16.40416 z m -16.93333,0 h -16.40417 v 16.404166 h 16.40417 z m -16.93333,0 h -16.40417 v 16.404166 h 16.40417 z m -16.93334,0 h -16.40416 v 16.404166 h 16.40416 z m -16.93333,0 h -16.40417 v 16.404166 h 16.40417 z m -16.93333,0 h -16.40417 v 16.404166 h 16.40417 z m -16.93334,0 h -16.40416 v 16.404166 h 16.40416 z m -16.93333,0 h -16.40417 v 16.404166 h 16.40417 z m -16.93333,0 h -16.40417 v 16.404166 h 16.40417 z m -16.93334,0 h -16.40416 v 16.404166 h 16.40416 z m -16.93333,0 h -16.40417 v 16.404166 h 16.40417 z m -16.93333,0 h -16.40417 v 16.404166 h 16.40417 z m -16.93334,0 h -16.40416 v 16.404166 h 16.40416 z m -16.93333,0 h -16.40417 v 16.404166 h 16.40417 z m -16.93333,0 h -16.40417 v 16.404166 h 16.40417 z m -16.93334,0 h -16.40416 v 16.404166 h 16.40416 z m -16.93333,0 h -16.40417 v 16.404166 h 16.40417 z m -16.93333,0 h -16.40417 v 16.404166 h 16.40417 z m -16.93334,0 h -16.40416 v 16.404166 h 16.40416 z m -16.93333,0 h -16.40417 v 16.404166 h 16.40417 z m -16.93333,0 h -16.40417 v 16.404166 h 16.40417 z M 32.568102,34.684936 H 16.163936 v 16.404167 h 16.404166 z m -16.933333,0 H -0.76939767 V 51.089103 H 15.634769 Z m -16.9333333,0 H -17.702731 v 16.404167 h 16.4041667 z m -16.9333337,0 h -16.404166 v 16.404167 h 16.404166 z m -16.933333,0 h -16.404167 v 16.404167 h 16.404167 z m -16.933333,0 h -16.404167 v 16.404167 h 16.404167 z m -16.933334,0 h -16.404166 v 16.404167 h 16.404166 z m -16.933333,0 H -102.3694 v 16.404167 h 16.404169 z m -16.933329,0 h -16.40417 v 16.404167 h 16.40417 z m -16.93334,0 h -16.40416 v 16.404167 h 16.40416 z m -16.93333,0 h -16.40417 v 16.404167 h 16.40417 z m -16.93333,0 h -16.40417 v 16.404167 h 16.40417 z m -16.93334,0 h -16.40416 v 16.404167 h 16.40416 z m -16.93333,0 h -16.40417 v 16.404167 h 16.40417 z m -16.93333,0 h -16.40417 v 16.404167 h 16.40417 z m -16.93334,0 h -16.40416 v 16.404167 h 16.40416 z m -16.93333,0 h -16.40417 v 16.404167 h 16.40417 z m -16.93333,0 h -16.40417 v 16.404167 h 16.40417 z m -16.93334,0 h -16.40416 v 16.404167 h 16.40416 z m -16.93333,0 h -16.40417 v 16.404167 h 16.40417 z m -16.93333,0 h -16.40417 v 16.404167 h 16.40417 z m -16.93334,0 h -16.40416 v 16.404167 h 16.40416 z m -16.93333,0 h -16.40417 v 16.404167 h 16.40417 z m -16.93333,0 h -16.40417 v 16.404167 h 16.40417 z m -16.93334,0 h -16.40416 v 16.404167 h 16.40416 z m -16.93333,0 h -16.40417 v 16.404167 h 16.40417 z m -16.93333,0 h -16.40417 v 16.404167 h 16.40417 z m -16.93334,0 h -16.40416 v 16.404167 h 16.40416 z m -16.93333,0 h -16.40417 v 16.404167 h 16.40417 z m -16.93333,0 h -16.40417 v 16.404167 h 16.40417 z M 32.568102,51.618269 H 16.163936 v 16.404167 h 16.404166 z m -16.933333,0 H -0.76939767 V 68.022436 H 15.634769 Z m -16.9333333,0 H -17.702731 v 16.404167 h 16.4041667 z m -16.9333337,0 h -16.404166 v 16.404167 h 16.404166 z m -16.933333,0 h -16.404167 v 16.404167 h 16.404167 z m -16.933333,0 h -16.404167 v 16.404167 h 16.404167 z m -16.933334,0 h -16.404166 v 16.404167 h 16.404166 z m -16.933333,0 H -102.3694 v 16.404167 h 16.404169 z m -16.933329,0 h -16.40417 v 16.404167 h 16.40417 z m -16.93334,0 h -16.40416 v 16.404167 h 16.40416 z m -16.93333,0 h -16.40417 v 16.404167 h 16.40417 z m -16.93333,0 h -16.40417 v 16.404167 h 16.40417 z m -16.93334,0 h -16.40416 v 16.404167 h 16.40416 z m -16.93333,0 h -16.40417 v 16.404167 h 16.40417 z m -16.93333,0 h -16.40417 v 16.404167 h 16.40417 z m -16.93334,0 h -16.40416 v 16.404167 h 16.40416 z m -16.93333,0 h -16.40417 v 16.404167 h 16.40417 z m -16.93333,0 h -16.40417 v 16.404167 h 16.40417 z m -16.93334,0 h -16.40416 v 16.404167 h 16.40416 z m -16.93333,0 h -16.40417 v 16.404167 h 16.40417 z m -16.93333,0 h -16.40417 v 16.404167 h 16.40417 z m -16.93334,0 h -16.40416 v 16.404167 h 16.40416 z m -16.93333,0 h -16.40417 v 16.404167 h 16.40417 z m -16.93333,0 h -16.40417 v 16.404167 h 16.40417 z m -16.93334,0 h -16.40416 v 16.404167 h 16.40416 z m -16.93333,0 h -16.40417 v 16.404167 h 16.40417 z m -16.93333,0 h -16.40417 v 16.404167 h 16.40417 z m -16.93334,0 h -16.40416 v 16.404167 h 16.40416 z m -16.93333,0 h -16.40417 v 16.404167 h 16.40417 z m -16.93333,0 h -16.40417 v 16.404167 h 16.40417 z M 32.568102,68.551603 H 16.163936 v 16.404166 h 16.404166 z m -16.933333,0 H -0.76939767 V 84.955769 H 15.634769 Z m -16.9333333,0 H -17.702731 v 16.404166 h 16.4041667 z m -16.9333337,0 h -16.404166 v 16.404166 h 16.404166 z m -16.933333,0 h -16.404167 v 16.404166 h 16.404167 z m -16.933333,0 h -16.404167 v 16.404166 h 16.404167 z m -16.933334,0 h -16.404166 v 16.404166 h 16.404166 z m -16.933333,0 H -102.3694 v 16.404166 h 16.404169 z m -16.933329,0 h -16.40417 v 16.404166 h 16.40417 z m -16.93334,0 h -16.40416 v 16.404166 h 16.40416 z m -16.93333,0 h -16.40417 v 16.404166 h 16.40417 z m -16.93333,0 h -16.40417 v 16.404166 h 16.40417 z m -16.93334,0 h -16.40416 v 16.404166 h 16.40416 z m -16.93333,0 h -16.40417 v 16.404166 h 16.40417 z m -16.93333,0 h -16.40417 v 16.404166 h 16.40417 z m -16.93334,0 h -16.40416 v 16.404166 h 16.40416 z m -16.93333,0 h -16.40417 v 16.404166 h 16.40417 z m -16.93333,0 h -16.40417 v 16.404166 h 16.40417 z m -16.93334,0 h -16.40416 v 16.404166 h 16.40416 z m -16.93333,0 h -16.40417 v 16.404166 h 16.40417 z m -16.93333,0 h -16.40417 v 16.404166 h 16.40417 z m -16.93334,0 h -16.40416 v 16.404166 h 16.40416 z m -16.93333,0 h -16.40417 v 16.404166 h 16.40417 z m -16.93333,0 h -16.40417 v 16.404166 h 16.40417 z m -16.93334,0 h -16.40416 v 16.404166 h 16.40416 z m -16.93333,0 h -16.40417 v 16.404166 h 16.40417 z m -16.93333,0 h -16.40417 v 16.404166 h 16.40417 z m -16.93334,0 h -16.40416 v 16.404166 h 16.40416 z m -16.93333,0 h -16.40417 v 16.404166 h 16.40417 z m -16.93333,0 h -16.40417 v 16.404166 h 16.40417 z M 32.568102,85.484936 H 16.163936 V 101.8891 h 16.404166 z m -16.933333,0 H -0.76939767 V 101.8891 H 15.634769 Z m -16.9333333,0 H -17.702731 V 101.8891 h 16.4041667 z m -16.9333337,0 H -34.636064 V 101.8891 h 16.404166 z m -16.933333,0 H -51.569398 V 101.8891 h 16.404167 z m -16.933333,0 H -68.502731 V 101.8891 h 16.404167 z m -16.933334,0 H -85.436064 V 101.8891 h 16.404166 z m -16.933333,0 H -102.3694 V 101.8891 h 16.404169 z m -16.933329,0 h -16.40417 V 101.8891 h 16.40417 z m -16.93334,0 h -16.40416 V 101.8891 h 16.40416 z m -16.93333,0 H -153.1694 V 101.8891 h 16.40417 z m -16.93333,0 h -16.40417 V 101.8891 h 16.40417 z m -16.93334,0 h -16.40416 V 101.8891 h 16.40416 z m -16.93333,0 H -203.9694 V 101.8891 h 16.40417 z m -16.93333,0 h -16.40417 V 101.8891 h 16.40417 z m -16.93334,0 h -16.40416 V 101.8891 h 16.40416 z m -16.93333,0 H -254.7694 V 101.8891 h 16.40417 z m -16.93333,0 h -16.40417 V 101.8891 h 16.40417 z m -16.93334,0 h -16.40416 V 101.8891 h 16.40416 z m -16.93333,0 H -305.5694 V 101.8891 h 16.40417 z m -16.93333,0 h -16.40417 V 101.8891 h 16.40417 z m -16.93334,0 h -16.40416 V 101.8891 h 16.40416 z m -16.93333,0 H -356.3694 V 101.8891 h 16.40417 z m -16.93333,0 h -16.40417 V 101.8891 h 16.40417 z m -16.93334,0 h -16.40416 V 101.8891 h 16.40416 z m -16.93333,0 H -407.1694 V 101.8891 h 16.40417 z m -16.93333,0 h -16.40417 V 101.8891 h 16.40417 z m -16.93334,0 h -16.40416 V 101.8891 h 16.40416 z m -16.93333,0 H -457.9694 V 101.8891 h 16.40417 z m -16.93333,0 h -16.40417 V 101.8891 h 16.40417 z M 32.568102,102.41827 H 16.163936 v 16.40417 h 16.404166 z m -16.933333,0 H -0.76939767 v 16.40417 H 15.634769 Z m -16.9333333,0 H -17.702731 v 16.40417 h 16.4041667 z m -16.9333337,0 h -16.404166 v 16.40417 h 16.404166 z m -16.933333,0 h -16.404167 v 16.40417 h 16.404167 z m -16.933333,0 h -16.404167 v 16.40417 h 16.404167 z m -16.933334,0 h -16.404166 v 16.40417 h 16.404166 z m -16.933333,0 H -102.3694 v 16.40417 h 16.404169 z m -16.933329,0 h -16.40417 v 16.40417 h 16.40417 z m -16.93334,0 h -16.40416 v 16.40417 h 16.40416 z m -16.93333,0 h -16.40417 v 16.40417 h 16.40417 z m -16.93333,0 h -16.40417 v 16.40417 h 16.40417 z m -16.93334,0 h -16.40416 v 16.40417 h 16.40416 z m -16.93333,0 h -16.40417 v 16.40417 h 16.40417 z m -16.93333,0 h -16.40417 v 16.40417 h 16.40417 z m -16.93334,0 h -16.40416 v 16.40417 h 16.40416 z m -16.93333,0 h -16.40417 v 16.40417 h 16.40417 z m -16.93333,0 h -16.40417 v 16.40417 h 16.40417 z m -16.93334,0 h -16.40416 v 16.40417 h 16.40416 z m -16.93333,0 h -16.40417 v 16.40417 h 16.40417 z m -16.93333,0 h -16.40417 v 16.40417 h 16.40417 z m -16.93334,0 h -16.40416 v 16.40417 h 16.40416 z m -16.93333,0 h -16.40417 v 16.40417 h 16.40417 z m -16.93333,0 h -16.40417 v 16.40417 h 16.40417 z m -16.93334,0 h -16.40416 v 16.40417 h 16.40416 z m -16.93333,0 h -16.40417 v 16.40417 h 16.40417 z m -16.93333,0 h -16.40417 v 16.40417 h 16.40417 z m -16.93334,0 h -16.40416 v 16.40417 h 16.40416 z m -16.93333,0 h -16.40417 v 16.40417 h 16.40417 z m -16.93333,0 h -16.40417 v 16.40417 h 16.40417 z M 32.568102,119.3516 H 16.163936 v 16.40417 h 16.404166 z m -16.933333,0 H -0.76939767 v 16.40417 H 15.634769 Z m -16.9333333,0 H -17.702731 v 16.40417 h 16.4041667 z m -16.9333337,0 h -16.404166 v 16.40417 h 16.404166 z m -16.933333,0 h -16.404167 v 16.40417 h 16.404167 z m -16.933333,0 h -16.404167 v 16.40417 h 16.404167 z m -16.933334,0 h -16.404166 v 16.40417 h 16.404166 z m -16.933333,0 H -102.3694 v 16.40417 h 16.404169 z m -16.933329,0 h -16.40417 v 16.40417 h 16.40417 z m -16.93334,0 h -16.40416 v 16.40417 h 16.40416 z m -16.93333,0 h -16.40417 v 16.40417 h 16.40417 z m -16.93333,0 h -16.40417 v 16.40417 h 16.40417 z m -16.93334,0 h -16.40416 v 16.40417 h 16.40416 z m -16.93333,0 h -16.40417 v 16.40417 h 16.40417 z m -16.93333,0 h -16.40417 v 16.40417 h 16.40417 z m -16.93334,0 h -16.40416 v 16.40417 h 16.40416 z m -16.93333,0 h -16.40417 v 16.40417 h 16.40417 z m -16.93333,0 h -16.40417 v 16.40417 h 16.40417 z m -16.93334,0 h -16.40416 v 16.40417 h 16.40416 z m -16.93333,0 h -16.40417 v 16.40417 h 16.40417 z m -16.93333,0 h -16.40417 v 16.40417 h 16.40417 z m -16.93334,0 h -16.40416 v 16.40417 h 16.40416 z m -16.93333,0 h -16.40417 v 16.40417 h 16.40417 z m -16.93333,0 h -16.40417 v 16.40417 h 16.40417 z m -16.93334,0 h -16.40416 v 16.40417 h 16.40416 z m -16.93333,0 h -16.40417 v 16.40417 h 16.40417 z m -16.93333,0 h -16.40417 v 16.40417 h 16.40417 z m -16.93334,0 h -16.40416 v 16.40417 h 16.40416 z m -16.93333,0 h -16.40417 v 16.40417 h 16.40417 z m -16.93333,0 h -16.40417 v 16.40417 h 16.40417 z M 32.568102,136.28494 H 16.163936 v 16.40416 h 16.404166 z m -16.933333,0 H -0.76939767 V 152.6891 H 15.634769 Z m -16.9333333,0 H -17.702731 v 16.40416 h 16.4041667 z m -16.9333337,0 h -16.404166 v 16.40416 h 16.404166 z m -16.933333,0 h -16.404167 v 16.40416 h 16.404167 z m -16.933333,0 h -16.404167 v 16.40416 h 16.404167 z m -16.933334,0 h -16.404166 v 16.40416 h 16.404166 z m -16.933333,0 H -102.3694 v 16.40416 h 16.404169 z m -16.933329,0 h -16.40417 v 16.40416 h 16.40417 z m -16.93334,0 h -16.40416 v 16.40416 h 16.40416 z m -16.93333,0 h -16.40417 v 16.40416 h 16.40417 z m -16.93333,0 h -16.40417 v 16.40416 h 16.40417 z m -16.93334,0 h -16.40416 v 16.40416 h 16.40416 z m -16.93333,0 h -16.40417 v 16.40416 h 16.40417 z m -16.93333,0 h -16.40417 v 16.40416 h 16.40417 z m -16.93334,0 h -16.40416 v 16.40416 h 16.40416 z m -16.93333,0 h -16.40417 v 16.40416 h 16.40417 z m -16.93333,0 h -16.40417 v 16.40416 h 16.40417 z m -16.93334,0 h -16.40416 v 16.40416 h 16.40416 z m -16.93333,0 h -16.40417 v 16.40416 h 16.40417 z m -16.93333,0 h -16.40417 v 16.40416 h 16.40417 z m -16.93334,0 h -16.40416 v 16.40416 h 16.40416 z m -16.93333,0 h -16.40417 v 16.40416 h 16.40417 z m -16.93333,0 h -16.40417 v 16.40416 h 16.40417 z m -16.93334,0 h -16.40416 v 16.40416 h 16.40416 z m -16.93333,0 h -16.40417 v 16.40416 h 16.40417 z m -16.93333,0 h -16.40417 v 16.40416 h 16.40417 z m -16.93334,0 h -16.40416 v 16.40416 h 16.40416 z m -16.93333,0 h -16.40417 v 16.40416 h 16.40417 z m -16.93333,0 h -16.40417 v 16.40416 h 16.40417 z M 32.568102,153.21827 H 16.163936 v 16.40417 h 16.404166 z m -16.933333,0 H -0.76939767 v 16.40417 H 15.634769 Z m -16.9333333,0 H -17.702731 v 16.40417 h 16.4041667 z m -16.9333337,0 h -16.404166 v 16.40417 h 16.404166 z m -16.933333,0 h -16.404167 v 16.40417 h 16.404167 z m -16.933333,0 h -16.404167 v 16.40417 h 16.404167 z m -16.933334,0 h -16.404166 v 16.40417 h 16.404166 z m -16.933333,0 H -102.3694 v 16.40417 h 16.404169 z m -16.933329,0 h -16.40417 v 16.40417 h 16.40417 z m -16.93334,0 h -16.40416 v 16.40417 h 16.40416 z m -16.93333,0 h -16.40417 v 16.40417 h 16.40417 z m -16.93333,0 h -16.40417 v 16.40417 h 16.40417 z m -16.93334,0 h -16.40416 v 16.40417 h 16.40416 z m -16.93333,0 h -16.40417 v 16.40417 h 16.40417 z m -16.93333,0 h -16.40417 v 16.40417 h 16.40417 z m -16.93334,0 h -16.40416 v 16.40417 h 16.40416 z m -16.93333,0 h -16.40417 v 16.40417 h 16.40417 z m -16.93333,0 h -16.40417 v 16.40417 h 16.40417 z m -16.93334,0 h -16.40416 v 16.40417 h 16.40416 z m -16.93333,0 h -16.40417 v 16.40417 h 16.40417 z m -16.93333,0 h -16.40417 v 16.40417 h 16.40417 z m -16.93334,0 h -16.40416 v 16.40417 h 16.40416 z m -16.93333,0 h -16.40417 v 16.40417 h 16.40417 z m -16.93333,0 h -16.40417 v 16.40417 h 16.40417 z m -16.93334,0 h -16.40416 v 16.40417 h 16.40416 z m -16.93333,0 h -16.40417 v 16.40417 h 16.40417 z m -16.93333,0 h -16.40417 v 16.40417 h 16.40417 z m -16.93334,0 h -16.40416 v 16.40417 h 16.40416 z m -16.93333,0 h -16.40417 v 16.40417 h 16.40417 z m -16.93333,0 h -16.40417 v 16.40417 h 16.40417 z M 32.568102,170.1516 H 16.163936 v 16.40417 h 16.404166 z m -16.933333,0 H -0.76939767 v 16.40417 H 15.634769 Z m -16.9333333,0 H -17.702731 v 16.40417 h 16.4041667 z m -16.9333337,0 h -16.404166 v 16.40417 h 16.404166 z m -16.933333,0 h -16.404167 v 16.40417 h 16.404167 z m -16.933333,0 h -16.404167 v 16.40417 h 16.404167 z m -16.933334,0 h -16.404166 v 16.40417 h 16.404166 z m -16.933333,0 H -102.3694 v 16.40417 h 16.404169 z m -16.933329,0 h -16.40417 v 16.40417 h 16.40417 z m -16.93334,0 h -16.40416 v 16.40417 h 16.40416 z m -16.93333,0 h -16.40417 v 16.40417 h 16.40417 z m -16.93333,0 h -16.40417 v 16.40417 h 16.40417 z m -16.93334,0 h -16.40416 v 16.40417 h 16.40416 z m -16.93333,0 h -16.40417 v 16.40417 h 16.40417 z m -16.93333,0 h -16.40417 v 16.40417 h 16.40417 z m -16.93334,0 h -16.40416 v 16.40417 h 16.40416 z m -16.93333,0 h -16.40417 v 16.40417 h 16.40417 z m -16.93333,0 h -16.40417 v 16.40417 h 16.40417 z m -16.93334,0 h -16.40416 v 16.40417 h 16.40416 z m -16.93333,0 h -16.40417 v 16.40417 h 16.40417 z m -16.93333,0 h -16.40417 v 16.40417 h 16.40417 z m -16.93334,0 h -16.40416 v 16.40417 h 16.40416 z m -16.93333,0 h -16.40417 v 16.40417 h 16.40417 z m -16.93333,0 h -16.40417 v 16.40417 h 16.40417 z m -16.93334,0 h -16.40416 v 16.40417 h 16.40416 z m -16.93333,0 h -16.40417 v 16.40417 h 16.40417 z m -16.93333,0 h -16.40417 v 16.40417 h 16.40417 z m -16.93334,0 h -16.40416 v 16.40417 h 16.40416 z m -16.93333,0 h -16.40417 v 16.40417 h 16.40417 z m -16.93333,0 h -16.40417 v 16.40417 h 16.40417 z M 32.568102,187.08494 H 16.163936 v 16.40416 h 16.404166 z m -16.933333,0 H -0.76939767 V 203.4891 H 15.634769 Z m -16.9333333,0 H -17.702731 v 16.40416 h 16.4041667 z m -16.9333337,0 h -16.404166 v 16.40416 h 16.404166 z m -16.933333,0 h -16.404167 v 16.40416 h 16.404167 z m -16.933333,0 h -16.404167 v 16.40416 h 16.404167 z m -16.933334,0 h -16.404166 v 16.40416 h 16.404166 z m -16.933333,0 H -102.3694 v 16.40416 h 16.404169 z m -16.933329,0 h -16.40417 v 16.40416 h 16.40417 z m -16.93334,0 h -16.40416 v 16.40416 h 16.40416 z m -16.93333,0 h -16.40417 v 16.40416 h 16.40417 z m -16.93333,0 h -16.40417 v 16.40416 h 16.40417 z m -16.93334,0 h -16.40416 v 16.40416 h 16.40416 z m -16.93333,0 h -16.40417 v 16.40416 h 16.40417 z m -16.93333,0 h -16.40417 v 16.40416 h 16.40417 z m -16.93334,0 h -16.40416 v 16.40416 h 16.40416 z m -16.93333,0 h -16.40417 v 16.40416 h 16.40417 z m -16.93333,0 h -16.40417 v 16.40416 h 16.40417 z m -16.93334,0 h -16.40416 v 16.40416 h 16.40416 z m -16.93333,0 h -16.40417 v 16.40416 h 16.40417 z m -16.93333,0 h -16.40417 v 16.40416 h 16.40417 z m -16.93334,0 h -16.40416 v 16.40416 h 16.40416 z m -16.93333,0 h -16.40417 v 16.40416 h 16.40417 z m -16.93333,0 h -16.40417 v 16.40416 h 16.40417 z m -16.93334,0 h -16.40416 v 16.40416 h 16.40416 z m -16.93333,0 h -16.40417 v 16.40416 h 16.40417 z m -16.93333,0 h -16.40417 v 16.40416 h 16.40417 z m -16.93334,0 h -16.40416 v 16.40416 h 16.40416 z m -16.93333,0 h -16.40417 v 16.40416 h 16.40417 z m -16.93333,0 h -16.40417 v 16.40416 h 16.40417 z M 32.568102,204.01827 H 16.163936 v 16.40417 h 16.404166 z m -16.933333,0 H -0.76939767 v 16.40417 H 15.634769 Z m -16.9333333,0 H -17.702731 v 16.40417 h 16.4041667 z m -16.9333337,0 h -16.404166 v 16.40417 h 16.404166 z m -16.933333,0 h -16.404167 v 16.40417 h 16.404167 z m -16.933333,0 h -16.404167 v 16.40417 h 16.404167 z m -16.933334,0 h -16.404166 v 16.40417 h 16.404166 z m -16.933333,0 H -102.3694 v 16.40417 h 16.404169 z m -16.933329,0 h -16.40417 v 16.40417 h 16.40417 z m -16.93334,0 h -16.40416 v 16.40417 h 16.40416 z m -16.93333,0 h -16.40417 v 16.40417 h 16.40417 z m -16.93333,0 h -16.40417 v 16.40417 h 16.40417 z m -16.93334,0 h -16.40416 v 16.40417 h 16.40416 z m -16.93333,0 h -16.40417 v 16.40417 h 16.40417 z m -16.93333,0 h -16.40417 v 16.40417 h 16.40417 z m -16.93334,0 h -16.40416 v 16.40417 h 16.40416 z m -16.93333,0 h -16.40417 v 16.40417 h 16.40417 z m -16.93333,0 h -16.40417 v 16.40417 h 16.40417 z m -16.93334,0 h -16.40416 v 16.40417 h 16.40416 z m -16.93333,0 h -16.40417 v 16.40417 h 16.40417 z m -16.93333,0 h -16.40417 v 16.40417 h 16.40417 z m -16.93334,0 h -16.40416 v 16.40417 h 16.40416 z m -16.93333,0 h -16.40417 v 16.40417 h 16.40417 z m -16.93333,0 h -16.40417 v 16.40417 h 16.40417 z m -16.93334,0 h -16.40416 v 16.40417 h 16.40416 z m -16.93333,0 h -16.40417 v 16.40417 h 16.40417 z m -16.93333,0 h -16.40417 v 16.40417 h 16.40417 z m -16.93334,0 h -16.40416 v 16.40417 h 16.40416 z m -16.93333,0 h -16.40417 v 16.40417 h 16.40417 z m -16.93333,0 h -16.40417 v 16.40417 h 16.40417 z M 32.568102,220.9516 H 16.163936 v 16.40417 h 16.404166 z m -16.933333,0 H -0.76939767 v 16.40417 H 15.634769 Z m -16.9333333,0 H -17.702731 v 16.40417 h 16.4041667 z m -16.9333337,0 h -16.404166 v 16.40417 h 16.404166 z m -16.933333,0 h -16.404167 v 16.40417 h 16.404167 z m -16.933333,0 h -16.404167 v 16.40417 h 16.404167 z m -16.933334,0 h -16.404166 v 16.40417 h 16.404166 z m -16.933333,0 H -102.3694 v 16.40417 h 16.404169 z m -16.933329,0 h -16.40417 v 16.40417 h 16.40417 z m -16.93334,0 h -16.40416 v 16.40417 h 16.40416 z m -16.93333,0 h -16.40417 v 16.40417 h 16.40417 z m -16.93333,0 h -16.40417 v 16.40417 h 16.40417 z m -16.93334,0 h -16.40416 v 16.40417 h 16.40416 z m -16.93333,0 h -16.40417 v 16.40417 h 16.40417 z m -16.93333,0 h -16.40417 v 16.40417 h 16.40417 z m -16.93334,0 h -16.40416 v 16.40417 h 16.40416 z m -16.93333,0 h -16.40417 v 16.40417 h 16.40417 z m -16.93333,0 h -16.40417 v 16.40417 h 16.40417 z m -16.93334,0 h -16.40416 v 16.40417 h 16.40416 z m -16.93333,0 h -16.40417 v 16.40417 h 16.40417 z m -16.93333,0 h -16.40417 v 16.40417 h 16.40417 z m -16.93334,0 h -16.40416 v 16.40417 h 16.40416 z m -16.93333,0 h -16.40417 v 16.40417 h 16.40417 z m -16.93333,0 h -16.40417 v 16.40417 h 16.40417 z m -16.93334,0 h -16.40416 v 16.40417 h 16.40416 z m -16.93333,0 h -16.40417 v 16.40417 h 16.40417 z m -16.93333,0 h -16.40417 v 16.40417 h 16.40417 z m -16.93334,0 h -16.40416 v 16.40417 h 16.40416 z m -16.93333,0 h -16.40417 v 16.40417 h 16.40417 z m -16.93333,0 h -16.40417 v 16.40417 h 16.40417 z"
       transform="scale(-1,1)"
       inkscape:label="white" /><ellipse
       style="opacity:1;mix-blend-mode:normal;fill:#202020;fill-opacity:1;stroke:#a0a0a0;stroke-width:0.529167;stroke-linecap:square;stroke-dasharray:none;stroke-opacity:1"
       id="path108"
       cx="254"
       cy="142.875"
       rx="42.333332"
       ry="42.112846"
       transform="translate(-33.097269,-33.577564)" /></g><rect
     style="opacity:1;mix-blend-mode:multiply;fill:url(#linearGradient111);fill-opacity:1;stroke:none;stroke-width:0.511367;stroke-linecap:square;stroke-dasharray:none;stroke-opacity:1"
     id="rect109"
     width="508"
     height="285.75"
     x="0"
     y="0"
     sodipodi:insensitive="true" /><g
     inkscape:label="Лого"
     inkscape:groupmode="layer"
     id="layer1"
     transform="translate(33.097269,33.577564)"><path
       id="rect3"
       style="opacity:1;mix-blend-mode:soft-light;fill:#ffffff;fill-opacity:1;stroke:#cbcbcb;stroke-width:0.997614;stroke-dasharray:none;stroke-opacity:1"
       d="m 190.96807,92.01465 2.53035,9.44339 2.53042,9.44364 2.35689,8.79605 0.17345,0.64734 37.77382,-10.12146 2.53035,9.44339 -37.77382,10.12146 2.53042,9.44364 47.21745,-12.65188 -2.53041,-9.44363 -2.53036,-9.4434 -2.53035,-9.44339 -9.44363,2.53042 -28.33042,7.59111 -2.53042,-9.443637 37.77406,-10.121528 -2.53035,-9.443393 z" /><rect
       style="opacity:1;mix-blend-mode:soft-light;fill:#00aa44;fill-opacity:1;stroke:#00943a;stroke-width:0.997619;stroke-linejoin:miter;stroke-dasharray:none;stroke-opacity:1"
       id="rect4"
       width="33.120796"
       height="7.7813911"
       x="171.42009"
       y="149.07973"
       transform="rotate(-15)" /><rect
       style="opacity:1;mix-blend-mode:soft-light;fill:#00aaff;fill-opacity:1;stroke:#0089cd;stroke-width:0.997619;stroke-linejoin:miter;stroke-dasharray:none;stroke-opacity:1"
       id="rect4-8"
       width="33.120796"
       height="7.7813911"
       x="165.63393"
       y="168.63297"
       transform="rotate(-15)" /><rect
       style="fill:url(#linearGradient30);fill-opacity:1;stroke:none;stroke-width:0.997619;stroke-linejoin:miter;stroke-dasharray:none;stroke-opacity:1"
       id="rect4-8-0"
       width="34.118408"
       height="0.99761432"
       x="165.13512"
       y="168.13417"
       transform="rotate(-15)" /><rect
       style="fill:url(#linearGradient33);fill-opacity:1;stroke:none;stroke-width:0.997614;stroke-linejoin:miter;stroke-dasharray:none;stroke-opacity:1"
       id="rect4-8-0-8"
       width="0.9976142"
       height="8.779006"
       x="198.25591"
       y="168.13417"
       transform="rotate(-15)" /><rect
       style="fill:url(#linearGradient31);fill-opacity:1;stroke:none;stroke-width:0.997619;stroke-linejoin:miter;stroke-dasharray:none;stroke-opacity:1"
       id="rect4-8-0-6"
       width="34.118408"
       height="0.99761432"
       x="165.13512"
       y="175.91556"
       transform="rotate(-15)" /><rect
       style="fill:url(#linearGradient35);fill-opacity:1;stroke:none;stroke-width:0.997619;stroke-linejoin:miter;stroke-dasharray:none;stroke-opacity:1"
       id="rect4-8-0-61"
       width="34.118408"
       height="0.99761432"
       x="-205.03969"
       y="148.58093"
       transform="matrix(-0.96592583,0.25881905,0.25881905,0.96592583,0,0)" /><rect
       style="fill:url(#linearGradient36);fill-opacity:1;stroke:none;stroke-width:0.997614;stroke-linejoin:miter;stroke-dasharray:none;stroke-opacity:1"
       id="rect4-8-0-8-5"
       width="0.9976142"
       height="8.779006"
       x="-171.91888"
       y="148.58093"
       transform="matrix(-0.96592583,0.25881905,0.25881905,0.96592583,0,0)" /><rect
       style="fill:url(#linearGradient37);fill-opacity:1;stroke:none;stroke-width:0.997619;stroke-linejoin:miter;stroke-dasharray:none;stroke-opacity:1"
       id="rect4-8-0-6-9"
       width="34.118408"
       height="0.99761432"
       x="-205.03969"
       y="156.36232"
       transform="matrix(-0.96592583,0.25881905,0.25881905,0.96592583,0,0)" /></g></svg>
